<svg xmlns="http://www.w3.org/2000/svg" fill="none" viewBox="0 0 263 233" height="233" width="263">
<g clip-path="url(#clip0)">
<path fill="#3767B0" d="M209.738 232.424H205.235C204.545 232.424 204.539 232.424 204.294 231.799C203.937 230.923 203.579 230.053 203.253 229.165C203.214 228.972 203.103 228.8 202.943 228.684C202.782 228.568 202.584 228.517 202.388 228.539C200.224 228.571 198.061 228.539 195.897 228.539C195.726 228.511 195.551 228.549 195.408 228.646C195.264 228.743 195.163 228.89 195.126 229.059C194.812 229.978 194.436 230.879 194.122 231.799C194.085 231.995 193.974 232.169 193.812 232.286C193.65 232.402 193.449 232.452 193.25 232.424C191.764 232.387 190.278 232.424 188.823 232.424C188.654 232.187 188.823 232.024 188.861 231.861C191.474 225.643 194.085 219.424 196.693 213.206C196.747 213.004 196.873 212.828 197.047 212.713C197.222 212.598 197.433 212.55 197.64 212.58C198.744 212.618 199.86 212.624 200.964 212.58C201.171 212.552 201.382 212.6 201.556 212.715C201.73 212.83 201.857 213.005 201.911 213.206C203.479 217.028 205.047 220.832 206.659 224.642C207.645 227.015 208.628 229.382 209.606 231.743C209.688 231.936 209.844 232.099 209.738 232.424ZM201.654 224.661L199.296 218.148H199.139C198.343 220.3 197.546 222.452 196.725 224.654L201.654 224.661Z"></path>
<path fill="#3767B0" d="M187.431 232.306C187.19 232.425 186.918 232.465 186.653 232.418C185.462 232.418 184.27 232.418 183.078 232.418C182.025 232.418 182.2 232.575 181.774 231.505C181.454 230.698 181.115 229.903 180.821 229.09C180.786 228.922 180.689 228.773 180.55 228.672C180.411 228.572 180.239 228.527 180.068 228.546C177.873 228.546 175.678 228.546 173.483 228.546C173.313 228.521 173.139 228.561 172.998 228.659C172.856 228.756 172.756 228.904 172.718 229.071C172.405 229.991 172.028 230.885 171.715 231.805C171.678 232.001 171.567 232.176 171.405 232.292C171.242 232.409 171.041 232.458 170.843 232.431C169.545 232.393 168.247 232.431 166.949 232.431C166.246 232.431 166.234 232.431 166.51 231.755L172.154 218.392C172.881 216.653 173.634 214.92 174.336 213.162C174.387 212.971 174.506 212.805 174.672 212.697C174.837 212.588 175.037 212.544 175.233 212.574C176.343 212.612 177.459 212.612 178.563 212.574C178.772 212.542 178.986 212.588 179.163 212.704C179.34 212.819 179.468 212.996 179.523 213.2C180.52 215.652 181.548 218.092 182.564 220.532C184.078 224.169 185.593 227.805 187.111 231.442C187.205 231.711 187.305 231.986 187.431 232.306ZM179.278 224.661C178.456 222.402 177.679 220.281 176.838 217.942L174.33 224.661H179.278Z"></path>
<path fill="#3767B0" d="M163.775 214.732C162.853 215.783 161.938 216.816 161.041 217.86C160.828 218.104 160.677 218.086 160.451 217.86C159.671 217.152 158.716 216.664 157.684 216.444C156.651 216.225 155.58 216.283 154.577 216.613C153.575 216.943 152.679 217.532 151.98 218.32C151.281 219.109 150.805 220.068 150.599 221.101C150.393 222.247 150.442 223.424 150.743 224.548C150.972 225.544 151.488 226.451 152.226 227.159C152.965 227.867 153.895 228.345 154.901 228.533C156.204 228.817 157.558 228.774 158.84 228.408C159.504 228.233 159.504 228.214 159.511 227.52C159.511 225.468 159.511 223.416 159.511 221.364C159.511 220.738 159.511 220.701 160.188 220.701H163.274C163.901 220.701 163.901 220.701 163.901 221.326C163.901 224.454 163.901 227.582 163.901 230.71C163.913 230.883 163.866 231.055 163.767 231.198C163.667 231.34 163.522 231.444 163.355 231.492C161.967 232.101 160.503 232.522 159.003 232.743C156.78 233.127 154.498 232.992 152.336 232.349C150.317 231.736 148.547 230.495 147.285 228.806C146.024 227.118 145.337 225.071 145.325 222.965C145.242 221.37 145.508 219.775 146.103 218.292C147.576 214.845 150.279 212.937 153.904 212.286C156.48 211.81 159.141 212.145 161.518 213.243C162.365 213.579 163.134 214.086 163.775 214.732Z"></path>
<path fill="#3767B0" d="M131.271 212.08C132.688 212.061 134.099 212.272 135.448 212.705C137.348 213.291 139.022 214.445 140.243 216.012C141.464 217.579 142.172 219.482 142.271 221.464C142.399 223.004 142.218 224.555 141.738 226.025C141.316 227.371 140.599 228.608 139.639 229.644C138.679 230.681 137.5 231.491 136.188 232.018C134.754 232.641 133.211 232.973 131.648 232.996C130.085 233.019 128.533 232.731 127.082 232.149C123.049 230.554 121.011 227.457 120.685 223.197C120.527 221.522 120.775 219.833 121.406 218.273C122.88 214.732 125.658 212.868 129.352 212.23C129.984 212.109 130.628 212.059 131.271 212.08ZM137.116 222.465C137.136 221.881 137.073 221.298 136.928 220.732C136.648 219.542 135.986 218.477 135.042 217.698C134.098 216.92 132.924 216.471 131.7 216.421C130.477 216.37 129.27 216.721 128.265 217.419C127.26 218.118 126.512 219.125 126.135 220.288C125.66 221.796 125.694 223.417 126.229 224.905C126.59 225.977 127.28 226.908 128.2 227.568C129.12 228.228 130.225 228.583 131.359 228.583C132.505 228.62 133.633 228.296 134.585 227.659C135.537 227.021 136.264 226.102 136.664 225.03C136.991 224.209 137.145 223.329 137.116 222.446V222.465Z"></path>
<path fill="#3767B0" d="M98.7167 225.568C99.256 223.562 99.7974 221.558 100.341 219.556C100.897 217.47 101.453 215.385 102.009 213.3C102.204 212.58 102.204 212.574 102.912 212.574C104.129 212.574 105.352 212.574 106.568 212.574C107.195 212.574 107.195 212.574 107.371 213.2C108.441 217.128 109.51 221.059 110.576 224.992C110.632 225.199 110.626 225.43 110.877 225.574C111.433 223.293 111.989 221.013 112.545 218.736C112.99 216.903 113.429 215.07 113.874 213.231C114.031 212.574 114.031 212.568 114.734 212.568H118.929C119.001 212.823 118.972 213.097 118.848 213.331C117.104 219.424 115.359 225.52 113.611 231.617C113.379 232.424 113.555 232.418 112.514 232.418H109.265C108.638 232.418 108.638 232.418 108.45 231.793C107.271 227.805 106.098 223.82 104.932 219.837C104.894 219.613 104.809 219.4 104.681 219.212C104.529 219.389 104.433 219.606 104.405 219.837C103.238 223.797 102.066 227.751 100.918 231.724C100.68 232.55 100.611 232.418 99.9835 232.424H96.6471C95.9259 232.424 95.9197 232.424 95.719 231.718C94.4647 227.251 93.1958 222.786 91.9123 218.323C91.4148 216.584 90.9214 214.845 90.4322 213.106C90.3883 213.024 90.3654 212.933 90.3654 212.84C90.3654 212.747 90.3883 212.656 90.4322 212.574C91.605 212.574 92.8216 212.574 94.032 212.574C94.5086 212.574 95.0793 212.361 95.4368 212.712C95.7942 213.062 95.7127 213.569 95.8193 214.013C96.6889 217.654 97.5586 221.299 98.4282 224.948C98.4783 225.161 98.5473 225.361 98.61 225.574L98.7167 225.568Z"></path>
<path fill="#ED7014" d="M75.2996 227.132C75.2996 225.618 75.2996 224.11 75.2996 222.596C75.2996 221.908 75.2996 221.908 74.5784 221.902C74.0893 221.902 73.6001 221.902 73.1172 221.902C72.8413 221.902 72.7284 221.783 72.7284 221.514C72.7284 220.626 72.7284 219.731 72.7284 218.843C72.7284 218.517 72.8789 218.423 73.1737 218.43C73.713 218.43 74.2586 218.43 74.7979 218.43C75.1805 218.43 75.3184 218.298 75.3122 217.91C75.2662 216.967 75.3208 216.021 75.4752 215.089C75.6349 213.897 76.2198 212.802 77.1227 212.004C78.0256 211.207 79.1862 210.761 80.3919 210.747C81.2818 210.674 82.1774 210.714 83.0572 210.866C83.3771 210.935 83.515 211.054 83.4837 211.398C83.3959 212.343 83.3332 213.275 83.2642 214.226C83.2642 214.476 83.1827 214.614 82.8628 214.551C82.5181 214.483 82.1666 214.456 81.8155 214.47C81.4198 214.449 81.0293 214.567 80.7119 214.803C80.3944 215.04 80.1703 215.38 80.0784 215.765C79.902 216.529 79.8408 217.316 79.8965 218.098C79.8965 218.417 80.116 218.423 80.3418 218.423C81.0441 218.423 81.7528 218.423 82.4552 218.423C82.8754 218.423 83.0384 218.542 83.0196 218.974C83.0196 219.781 83.0196 220.594 83.0196 221.401C83.0196 221.795 82.8754 221.927 82.4928 221.908C81.9786 221.908 81.4643 221.908 80.9501 221.908C79.7397 221.908 79.9028 221.789 79.8965 222.922C79.8965 225.699 79.8965 228.483 79.8965 231.261V231.667C79.8965 232.362 79.8965 232.368 79.1816 232.368H75.933C75.3059 232.368 75.3059 232.368 75.3059 231.743C75.3017 230.208 75.2996 228.671 75.2996 227.132Z"></path>
<path fill="#ED7014" d="M71.6184 225.399C71.7062 229.634 68.351 232.625 64.3876 232.812C62.8133 232.932 61.2382 232.593 59.8534 231.836C58.7542 231.259 57.8298 230.399 57.1759 229.345C56.522 228.291 56.1625 227.082 56.1345 225.843C56.0282 224.627 56.2287 223.403 56.7178 222.283C57.903 219.681 60.0227 218.38 62.7884 218.042C64.0816 217.868 65.3974 217.985 66.639 218.386C68.1364 218.83 69.4411 219.762 70.344 221.034C71.2469 222.305 71.6957 223.842 71.6184 225.399ZM63.635 228.971C65.2091 228.971 66.1435 228.345 66.733 227.238C67.0916 226.565 67.2463 225.802 67.1783 225.042C67.1605 224.541 67.029 224.05 66.7938 223.607C66.5585 223.163 66.2257 222.778 65.8201 222.482C65.4146 222.185 64.947 221.984 64.4523 221.893C63.9576 221.802 63.4488 221.825 62.964 221.958C62.2946 222.153 61.7051 222.557 61.2811 223.109C60.8571 223.661 60.6206 224.334 60.606 225.03C60.4304 227.094 61.8038 229.027 63.635 228.971Z"></path>
<path fill="#ED7014" d="M253.361 194.406C254.154 195.233 255.199 195.774 256.333 195.945C256.792 196.006 257.257 195.95 257.688 195.783C257.887 195.731 258.064 195.618 258.193 195.459C258.323 195.301 258.399 195.105 258.409 194.901C258.435 194.683 258.388 194.462 258.274 194.274C258.161 194.086 257.987 193.941 257.782 193.862C257.187 193.601 256.57 193.392 255.938 193.237C255.343 193.068 254.728 192.93 254.151 192.705C250.758 191.404 251.015 187.456 253.085 185.823C253.891 185.173 254.853 184.742 255.876 184.572C257.886 184.2 259.964 184.518 261.771 185.473C262.029 185.62 262.278 185.783 262.517 185.961C262.668 186.073 262.793 186.211 262.994 186.386L260.686 188.789C260.466 189.02 260.31 188.857 260.14 188.72C259.549 188.241 258.849 187.915 258.102 187.769C257.538 187.669 256.958 187.738 256.434 187.969C256.253 188.032 256.098 188.152 255.993 188.312C255.887 188.471 255.837 188.661 255.851 188.851C255.845 189.028 255.898 189.202 255.999 189.348C256.101 189.493 256.247 189.602 256.415 189.658C256.941 189.868 257.485 190.031 258.039 190.146C258.889 190.311 259.714 190.58 260.498 190.947C261.165 191.223 261.739 191.684 262.154 192.274C262.568 192.865 262.805 193.561 262.837 194.281C262.908 195.054 262.762 195.83 262.417 196.525C262.071 197.22 261.539 197.805 260.88 198.216C260.101 198.713 259.22 199.027 258.303 199.136C256.012 199.515 253.662 199.052 251.686 197.835C250.658 197.209 250.671 197.172 251.505 196.296L253.361 194.406Z"></path>
<path fill="#ED7014" d="M239.608 186.599C239.974 186.062 240.447 185.607 240.997 185.26C241.548 184.914 242.163 184.684 242.806 184.585C245.478 184.128 247.792 185.485 248.482 187.982C248.679 188.682 248.78 189.406 248.783 190.134V198.148C248.783 198.848 248.783 198.855 248.068 198.855H244.744C244.18 198.855 244.161 198.855 244.161 198.229C244.161 195.989 244.161 193.75 244.161 191.51C244.175 190.97 244.122 190.43 244.004 189.902C243.962 189.523 243.8 189.166 243.542 188.884C243.284 188.602 242.943 188.409 242.568 188.332C242.159 188.229 241.729 188.246 241.329 188.382C240.93 188.517 240.578 188.765 240.317 189.095C239.849 189.699 239.61 190.447 239.639 191.21C239.639 193.424 239.639 195.633 239.639 197.847C239.639 198.035 239.639 198.229 239.639 198.417C239.639 198.604 239.552 198.823 239.269 198.823H235.3C235.068 198.823 234.961 198.698 234.967 198.467C234.973 198.235 234.967 198.141 234.967 197.979V185.698C234.967 185.567 234.967 185.429 234.967 185.291C234.967 184.979 235.105 184.872 235.406 184.872H239.056C239.382 184.872 239.476 185.022 239.47 185.323C239.47 185.723 239.47 186.124 239.47 186.53L239.608 186.599Z"></path>
<path fill="#ED7014" d="M224.306 184.459C225.665 184.413 227.013 184.717 228.219 185.341C229.445 185.939 230.466 186.885 231.152 188.061C231.839 189.237 232.16 190.59 232.076 191.948C232.032 196.771 228.1 199.18 224.745 199.274C223.675 199.353 222.601 199.214 221.587 198.865C220.573 198.515 219.642 197.962 218.85 197.24C216.636 195.145 216.097 192.523 216.868 189.664C217.608 186.906 219.559 185.335 222.293 184.66C222.955 184.521 223.63 184.454 224.306 184.459ZM224.356 195.389C224.942 195.408 225.521 195.256 226.022 194.953C226.523 194.65 226.924 194.208 227.178 193.681C227.449 193.181 227.607 192.627 227.639 192.06C227.672 191.492 227.579 190.924 227.366 190.396C227.078 189.599 226.488 188.946 225.722 188.577C224.956 188.209 224.077 188.154 223.271 188.426C222.616 188.659 222.049 189.09 221.651 189.66C221.253 190.23 221.043 190.909 221.051 191.604C220.957 193.937 222.575 195.489 224.356 195.389Z"></path>
<path fill="#ED7014" d="M213.651 191.885V198.141C213.651 198.861 213.651 198.867 212.955 198.873H209.706C209.017 198.873 209.01 198.873 209.01 198.141C209.01 194.225 209.01 190.309 209.01 186.393C209.01 185.917 208.791 185.323 209.136 184.991C209.481 184.66 210.02 184.904 210.471 184.897C211.205 184.897 211.933 184.897 212.666 184.897C213.751 184.897 213.638 184.791 213.645 185.836L213.651 191.885Z"></path>
<path fill="#ED7014" d="M213.971 180.449C213.948 181.128 213.664 181.771 213.178 182.246C212.692 182.721 212.041 182.991 211.36 183C210.68 183.009 210.022 182.756 209.524 182.294C209.026 181.831 208.725 181.196 208.684 180.518C208.686 180.173 208.756 179.832 208.891 179.515C209.026 179.198 209.223 178.911 209.471 178.67C209.718 178.43 210.011 178.241 210.333 178.114C210.654 177.988 210.998 177.927 211.343 177.934C211.682 177.924 212.02 177.982 212.336 178.103C212.652 178.225 212.941 178.408 213.186 178.642C213.43 178.876 213.626 179.157 213.761 179.467C213.895 179.777 213.967 180.111 213.971 180.449Z"></path>
<path fill="#ED7014" d="M195.144 197.56V199.568C195.144 201.374 195.144 203.182 195.144 204.992C195.144 205.298 195.144 205.58 194.705 205.567C193.451 205.567 192.197 205.567 190.943 205.567C190.623 205.567 190.497 205.442 190.522 205.136C190.522 204.979 190.522 204.817 190.522 204.654V185.804C190.522 184.81 190.428 184.904 191.444 184.897C192.46 184.891 193.395 184.897 194.373 184.897C194.799 184.897 194.956 185.047 194.919 185.46C194.881 185.873 194.919 186.086 194.919 186.399C195.182 186.474 195.257 186.299 195.364 186.192C197.904 183.596 202.319 184.178 204.42 186.868C205.381 188.181 205.946 189.74 206.049 191.363C206.153 192.985 205.79 194.603 205.003 196.027C204.26 197.381 203.041 198.412 201.581 198.924C200.121 199.436 198.523 199.391 197.095 198.798C196.403 198.496 195.78 198.058 195.263 197.509L195.144 197.56ZM198.324 195.389C198.965 195.419 199.6 195.245 200.135 194.89C200.669 194.536 201.077 194.02 201.296 193.418C201.541 192.859 201.655 192.251 201.628 191.642C201.6 191.032 201.433 190.437 201.14 189.902C200.949 189.528 200.679 189.199 200.349 188.937C200.019 188.676 199.636 188.489 199.227 188.388C198.395 188.165 197.508 188.275 196.756 188.695C196.004 189.114 195.446 189.81 195.201 190.634C194.411 192.936 196.116 195.482 198.324 195.389Z"></path>
<path fill="#ED7014" d="M169.112 186.762C169.583 186.046 170.229 185.462 170.99 185.067C171.751 184.672 172.601 184.477 173.458 184.503C174.281 184.475 175.095 184.672 175.814 185.071C176.534 185.47 177.13 186.056 177.541 186.768C177.804 186.48 178.011 186.236 178.231 186.011C180.206 183.996 183.749 183.959 185.612 185.942C186.359 186.771 186.836 187.808 186.979 188.914C187.073 189.501 187.119 190.095 187.117 190.69C187.117 193.193 187.117 195.658 187.117 198.141C187.117 198.842 187.117 198.848 186.396 198.854H183.31C182.326 198.854 182.464 198.854 182.464 198.035C182.464 195.737 182.464 193.443 182.464 191.153C182.481 190.692 182.434 190.231 182.326 189.783C182.273 189.448 182.122 189.136 181.893 188.885C181.663 188.635 181.364 188.458 181.034 188.376C180.665 188.271 180.274 188.275 179.907 188.385C179.54 188.496 179.213 188.71 178.964 189.001C178.419 189.65 178.145 190.483 178.199 191.328C178.199 193.514 178.199 195.701 178.199 197.891C178.199 198.079 178.199 198.266 178.199 198.454C178.199 198.786 178.055 198.88 177.76 198.873C176.506 198.873 175.252 198.873 173.998 198.873C173.49 198.873 173.527 198.56 173.527 198.248V191.247C173.554 190.76 173.514 190.272 173.408 189.796C173.356 189.528 173.246 189.274 173.086 189.053C172.926 188.831 172.719 188.647 172.48 188.514C172.241 188.38 171.976 188.301 171.703 188.28C171.43 188.259 171.156 188.298 170.9 188.394C170.454 188.524 170.072 188.814 169.827 189.208C169.432 189.827 169.231 190.551 169.25 191.285C169.25 193.579 169.25 195.872 169.25 198.166C169.25 198.836 169.25 198.842 168.623 198.848H165.211C164.641 198.848 164.641 198.848 164.622 198.223V185.854C164.622 185.667 164.622 185.479 164.622 185.291C164.622 184.972 164.772 184.866 165.073 184.872C166.265 184.872 167.457 184.872 168.648 184.872C169.012 184.872 169.118 185.022 169.106 185.36C169.093 185.698 169.112 186.148 169.112 186.762Z"></path>
<path fill="#ED7014" d="M156.902 197.566C155.202 199.274 153.196 199.48 151.076 198.898C148.567 198.198 147.514 196.171 148.028 193.712C148.14 193.265 148.341 192.844 148.619 192.476C148.897 192.107 149.246 191.798 149.646 191.566C150.729 190.892 151.947 190.465 153.214 190.315C154.262 190.146 155.322 190.152 156.35 190.071C156.889 190.027 156.908 189.996 156.82 189.495C156.657 188.57 155.899 187.982 154.763 187.881C153.566 187.803 152.38 188.156 151.421 188.876C150.869 189.258 150.863 189.258 150.392 188.764C149.922 188.269 149.37 187.644 148.837 187.112C148.574 186.843 148.63 186.68 148.887 186.486C149.805 185.725 150.874 185.164 152.023 184.841C153.644 184.38 155.353 184.32 157.002 184.666C157.848 184.805 158.639 185.175 159.285 185.737C159.932 186.298 160.41 187.027 160.665 187.844C161.084 189.188 161.279 190.591 161.242 191.998C161.242 194.075 161.242 196.152 161.242 198.254C161.242 198.88 161.242 198.88 160.615 198.88H157.611C157.046 198.88 157.052 198.88 157.021 198.291C157.021 198.11 157.021 197.922 156.977 197.735C156.983 197.691 156.958 197.691 156.902 197.566ZM155.924 192.786C155.815 192.78 155.706 192.78 155.597 192.786C154.704 192.782 153.82 192.972 153.007 193.343C152.708 193.475 152.463 193.707 152.316 193.999C152.168 194.291 152.127 194.625 152.198 194.944C152.279 195.232 152.446 195.488 152.677 195.678C152.908 195.868 153.192 195.983 153.49 196.008C153.892 196.061 154.299 196.061 154.701 196.008C155.26 195.976 155.79 195.749 156.199 195.367C156.608 194.986 156.87 194.473 156.94 193.918C157.153 192.498 157.121 192.792 155.924 192.786Z"></path>
<path fill="#ED7014" d="M136.131 186.43C136.842 185.613 137.767 185.01 138.803 184.691C141.65 183.99 144.598 185.198 145.193 188.807C145.286 189.368 145.332 189.935 145.331 190.503C145.331 193.005 145.331 195.508 145.331 198.041C145.331 198.861 145.331 198.861 144.478 198.861H141.387C140.672 198.861 140.665 198.861 140.665 198.154C140.665 195.889 140.665 193.618 140.665 191.347C140.677 190.889 140.635 190.432 140.54 189.983C140.499 189.617 140.346 189.273 140.103 188.995C139.86 188.718 139.537 188.521 139.179 188.432C138.758 188.309 138.31 188.314 137.892 188.447C137.475 188.579 137.106 188.833 136.834 189.176C136.341 189.831 136.095 190.637 136.138 191.454C136.138 193.589 136.138 195.722 136.138 197.854C136.138 198.041 136.138 198.235 136.138 198.423C136.138 198.723 136.05 198.867 135.724 198.861C134.469 198.861 133.215 198.861 131.961 198.861C131.66 198.861 131.503 198.761 131.522 198.442C131.522 198.279 131.522 198.116 131.522 197.954V178.591C131.522 177.559 131.403 177.697 132.431 177.684H135.354C136.163 177.684 136.113 177.628 136.113 178.416V186.43H136.131Z"></path>
<path fill="#ED7014" d="M126.279 184.666C125.799 184.091 125.197 183.631 124.515 183.319C123.833 183.007 123.09 182.852 122.341 182.864C120.961 182.817 119.613 183.284 118.56 184.175C117.507 185.065 116.825 186.316 116.646 187.681C116.432 188.966 116.56 190.284 117.016 191.504C118.622 195.595 123.858 195.883 126.053 193.337C126.204 193.162 126.323 192.886 126.624 193.174C127.64 194.144 128.662 195.101 129.722 196.089C128.676 197.327 127.309 198.253 125.771 198.767C124.3 199.291 122.736 199.505 121.178 199.398C119.619 199.29 118.1 198.862 116.715 198.141C113.58 196.546 111.899 193.906 111.41 190.471C111.118 188.62 111.317 186.724 111.987 184.972C113.379 181.388 116.113 179.398 119.832 178.716C122.08 178.286 124.405 178.516 126.524 179.379C127.51 179.761 128.412 180.333 129.176 181.062C129.434 181.306 129.534 181.475 129.22 181.776C128.23 182.676 127.308 183.646 126.279 184.666Z"></path>
<path fill="#ED7014" d="M88.7766 201.407C89.4304 201.555 90.1018 201.61 90.7709 201.57C91.0212 201.54 91.2624 201.458 91.4786 201.328C91.6947 201.199 91.881 201.025 92.0252 200.819C92.4173 200.172 92.731 199.481 92.9596 198.761C93.0788 198.473 92.8655 198.248 92.7652 198.004C91.1346 194.158 89.4999 190.313 87.861 186.468C87.624 185.994 87.4309 185.5 87.2841 184.991C87.52 184.872 87.7886 184.832 88.0492 184.879H91.5611C92.3387 184.879 92.3387 184.879 92.5833 185.585L95.142 192.918C95.2298 193.162 95.3364 193.399 95.4995 193.812C95.6437 193.399 95.7315 193.187 95.8068 192.924L98.0833 185.585C98.3028 184.885 98.3028 184.885 99.0114 184.879H103.025C103.194 185.173 103.025 185.36 102.95 185.548C100.939 190.728 98.9215 195.904 96.898 201.075C96.7131 201.549 96.5038 202.012 96.2709 202.464C95.8366 203.372 95.1581 204.142 94.311 204.687C93.4639 205.233 92.4815 205.533 91.4733 205.555C90.6063 205.596 89.7375 205.539 88.8832 205.386C88.3314 205.298 88.2937 205.261 88.3627 204.71C88.4693 203.615 88.6261 202.527 88.7766 201.407Z"></path>
<path fill="#ED7014" d="M84.7567 194.413C85.5469 195.37 86.312 196.29 87.0833 197.234C87.2903 197.478 87.1586 197.616 86.9767 197.766C86.4513 198.193 85.8549 198.526 85.2145 198.748C83.1355 199.506 80.8517 199.486 78.7864 198.692C75.7574 197.547 74.039 194.719 74.2648 191.31C74.547 186.993 78.0276 184.372 82.2043 184.459C83.8369 184.449 85.4324 184.945 86.7698 185.88C87.3216 186.28 87.3154 186.299 86.8889 186.799L84.6626 189.377C84.5621 189.312 84.4658 189.241 84.3741 189.164C82.4488 187.575 79.9466 188.269 79.1752 190.622C78.952 191.221 78.8878 191.868 78.9888 192.499C79.0899 193.13 79.3529 193.725 79.7522 194.225C80.2816 194.845 81.02 195.251 81.8285 195.367C82.6369 195.482 83.4597 195.298 84.1421 194.851C84.3302 194.738 84.5184 194.594 84.7567 194.413Z"></path>
<path fill="#ED7014" d="M62.1612 186.574C62.4685 186.493 62.5375 186.299 62.6567 186.167C63.4883 185.265 64.6131 184.685 65.832 184.531C67.0509 184.376 68.2853 184.657 69.3168 185.323C69.9214 185.757 70.423 186.318 70.7861 186.966C71.1491 187.615 71.3648 188.335 71.4177 189.076C71.4638 189.479 71.4847 189.885 71.4804 190.29C71.4804 192.855 71.4804 195.422 71.4804 197.991C71.4804 198.936 71.5369 198.842 70.5899 198.842H67.6675C66.871 198.842 66.8647 198.842 66.8647 198.066C66.8647 195.877 66.8647 193.687 66.8647 191.504C66.8736 190.989 66.8253 190.475 66.7205 189.971C66.6851 189.591 66.5311 189.231 66.2803 188.943C66.0294 188.654 65.6943 188.452 65.322 188.363C64.8882 188.239 64.4265 188.252 64.0006 188.401C63.5748 188.55 63.2059 188.828 62.9452 189.195C62.5056 189.82 62.2852 190.572 62.318 191.335C62.318 193.524 62.318 195.712 62.318 197.897C62.318 198.091 62.318 198.279 62.318 198.467C62.318 198.654 62.1801 198.842 61.9229 198.842H58.5176C57.6647 198.842 57.6584 198.842 57.6584 198.022V185.636C57.6584 184.879 57.6584 184.879 58.4047 184.872C59.4834 184.872 60.5683 184.872 61.6533 184.872C62.0421 184.872 62.1926 184.997 62.1675 185.385C62.1424 185.773 62.1612 186.136 62.1612 186.574Z"></path>
<path fill="#ED7014" d="M49.7817 193.118H45.3165C44.6894 193.118 44.6329 193.224 44.8587 193.743C45.0669 194.245 45.4046 194.683 45.8375 195.013C46.2704 195.343 46.783 195.552 47.3233 195.62C47.9329 195.767 48.5705 195.752 49.1724 195.576C49.7743 195.401 50.3195 195.071 50.7537 194.619C50.7951 194.551 50.8513 194.494 50.9183 194.45C50.9852 194.407 51.0611 194.38 51.1401 194.37C51.2192 194.361 51.2995 194.369 51.3748 194.395C51.4502 194.421 51.5187 194.463 51.5753 194.519C52.3341 195.032 53.118 195.52 53.9082 195.989C54.2531 196.196 54.2719 196.371 54.0211 196.677C53.0673 197.85 51.7391 198.66 50.2583 198.973C48.2765 199.484 46.1802 199.314 44.3068 198.492C41.5788 197.24 40.0674 194.638 40.2367 191.454C40.2601 189.915 40.7841 188.426 41.7298 187.211C42.6754 185.996 43.9915 185.12 45.4795 184.716C46.9455 184.287 48.5039 184.287 49.9698 184.716C52.6602 185.51 54.0901 187.437 54.6482 190.102C54.7888 190.929 54.8476 191.767 54.8238 192.605C54.8238 192.999 54.6733 193.111 54.297 193.105C52.8107 193.111 51.2931 193.118 49.7817 193.118ZM47.662 190.265H50.1705C50.4276 190.265 50.5969 190.19 50.5468 189.89C50.5009 189.485 50.3601 189.097 50.1356 188.756C49.9111 188.416 49.6094 188.134 49.2549 187.931C48.5552 187.611 47.7665 187.539 47.0202 187.728C46.2739 187.917 45.6151 188.355 45.1534 188.97C44.9844 189.217 44.8572 189.489 44.7772 189.777C44.6831 190.121 44.7772 190.271 45.1723 190.265C46.0063 190.252 46.8467 190.265 47.662 190.265Z"></path>
<path fill="#ED7014" d="M21.9496 203.321L24.1633 200.193C24.5145 200.237 24.6839 200.475 24.9096 200.619C25.6396 201.135 26.4655 201.5 27.3389 201.693C28.2122 201.887 29.1154 201.904 29.9957 201.745C30.6849 201.646 31.3231 201.326 31.8132 200.832C32.3033 200.339 32.6185 199.699 32.7111 199.011C32.8153 198.486 32.8385 197.948 32.7801 197.416C32.7577 197.398 32.7318 197.386 32.7042 197.38C32.6766 197.373 32.6479 197.372 32.6201 197.378C32.5922 197.383 32.5658 197.394 32.5426 197.41C32.5194 197.427 32.4999 197.448 32.4854 197.472C30.4347 199.718 25.4552 199.624 23.185 196.408C22.2317 194.955 21.7574 193.241 21.8282 191.506C21.899 189.771 22.5115 188.101 23.5801 186.73C24.4793 185.691 25.6898 184.968 27.0326 184.669C28.3755 184.369 29.7794 184.508 31.0367 185.066C31.7442 185.405 32.3626 185.905 32.8428 186.524C32.9861 186.191 33.0296 185.824 32.9683 185.467C32.9683 185.072 33.0686 184.879 33.5139 184.891C34.5988 184.891 35.6775 184.891 36.7624 184.891C37.3206 184.891 37.3331 184.891 37.3331 185.517C37.3331 187.781 37.3331 190.052 37.3331 192.317C37.3331 194.313 37.3331 196.308 37.3331 198.31C37.3231 199.121 37.1855 199.925 36.9255 200.694C36.0412 203.396 34.1034 204.904 31.3503 205.386C28.4382 205.904 25.4362 205.395 22.8589 203.947C22.6457 203.834 22.4387 203.697 22.2318 203.565C22.1312 203.492 22.0368 203.41 21.9496 203.321ZM32.9118 191.842C32.9212 191.654 32.9212 191.466 32.9118 191.278C32.839 190.506 32.4977 189.782 31.9468 189.234C31.396 188.686 30.6703 188.347 29.8953 188.276C29.1501 188.186 28.3972 188.365 27.7734 188.782C27.1497 189.199 26.6965 189.825 26.4963 190.547C26.4069 190.856 26.3543 191.175 26.3395 191.497C26.2438 192.288 26.4251 193.087 26.8525 193.76C27.2799 194.433 27.9273 194.937 28.685 195.188C29.1927 195.335 29.728 195.358 30.2464 195.256C30.7649 195.154 31.2514 194.93 31.6655 194.602C32.0796 194.275 32.4093 193.854 32.6272 193.373C32.8451 192.893 32.9448 192.368 32.9181 191.842H32.9118Z"></path>
<path fill="#ED7014" d="M20.8333 198.066C19.6041 195.101 18.3707 192.136 17.1332 189.17C15.8037 185.986 14.4679 182.802 13.1572 179.605C13.1135 179.409 12.998 179.236 12.8333 179.12C12.6686 179.004 12.4665 178.954 12.2667 178.979C11.1629 179.023 10.0466 179.035 8.93659 178.979C8.71466 178.945 8.48813 178.997 8.30295 179.123C8.11778 179.25 7.98782 179.442 7.93945 179.661C5.34313 185.875 2.74053 192.077 0.131665 198.266C0.0626805 198.429 -0.0815596 198.585 0.0564092 198.854C1.53644 198.854 3.04782 198.854 4.55921 198.854C4.74406 198.878 4.9309 198.829 5.08054 198.719C5.23019 198.608 5.33104 198.444 5.36194 198.26C5.6755 197.341 6.06433 196.446 6.37162 195.526C6.40538 195.344 6.50834 195.182 6.65906 195.073C6.80977 194.965 6.99661 194.919 7.18062 194.944C9.35049 194.944 11.5141 194.944 13.6777 194.944C13.863 194.92 14.0507 194.966 14.203 195.074C14.3554 195.182 14.4613 195.344 14.4992 195.526C14.8504 196.483 15.2581 197.403 15.6218 198.385C15.7284 198.667 15.8476 198.848 16.1862 198.848C17.7854 198.848 19.3783 198.848 21.0402 198.848C21.0436 198.574 20.9721 198.303 20.8333 198.066ZM8.00843 191.103C8.75472 188.882 9.62016 186.762 10.3915 184.584C10.7553 185.004 12.4046 189.339 12.8687 191.103H8.00843Z"></path>
<path fill="white" d="M69.5112 65.751C73.1007 65.7448 76.6077 64.6773 79.5893 62.6835C82.5708 60.6897 84.8929 57.8589 86.2623 54.549C87.6316 51.239 87.9867 47.5985 87.2826 44.0873C86.5785 40.5761 84.8469 37.3519 82.3066 34.8222C79.7663 32.2924 76.5312 30.5706 73.0103 29.8743C69.4893 29.178 65.8405 29.5385 62.5248 30.9102C59.2092 32.2819 56.3755 34.6033 54.382 37.5809C52.3884 40.5586 51.3244 44.059 51.3244 47.6398C51.3186 50.0224 51.7853 52.3827 52.6976 54.5847C53.6099 56.7867 54.9498 58.787 56.6401 60.4703C58.3305 62.1537 60.338 63.4869 62.5469 64.3932C64.7559 65.2994 67.1227 65.7609 69.5112 65.751Z"></path>
<path fill="white" d="M191.902 65.751C195.49 65.7436 198.995 64.6756 201.974 62.682C204.954 60.6883 207.274 57.8585 208.642 54.55C210.01 51.2414 210.365 47.6026 209.661 44.0932C208.957 40.5839 207.226 37.3614 204.687 34.8328C202.148 32.3043 198.914 30.5832 195.395 29.887C191.876 29.1907 188.229 29.5505 184.915 30.921C181.601 32.2915 178.768 34.6111 176.774 37.5868C174.781 40.5625 173.717 44.0608 173.715 47.6397C173.708 50.0229 174.173 52.3839 175.085 54.5867C175.997 56.7894 177.337 58.7904 179.027 60.474C180.718 62.1577 182.726 63.4909 184.936 64.3965C187.146 65.3022 189.513 65.7626 191.902 65.751Z"></path>
<path fill="#ED7014" d="M142.359 33.1132L138.27 39.632C137.498 40.8073 136.805 42.032 136.194 43.2981C135.622 44.4958 135.31 45.8005 135.278 47.1268C135.278 47.671 135.278 47.6898 135.786 47.6648C137.253 47.6329 138.706 47.9571 140.02 48.6094C142.073 49.5882 144.023 50.7703 145.839 52.1379C149.383 54.6778 152.738 57.4242 156.231 60.058C161.167 63.8909 166.366 67.3737 171.79 70.4806C177.853 73.9416 184.339 76.6058 191.087 78.407C195.491 79.5739 200.053 80.0301 204.602 79.7583C209.986 79.3797 215.243 77.9402 220.067 75.5229C222.96 74.0494 225.769 72.4183 228.483 70.637C229.454 69.9996 230.461 69.4189 231.499 68.8978C231.934 68.6796 232.393 68.5117 232.866 68.3973C233.085 68.3198 233.317 68.2868 233.549 68.3C233.781 68.3133 234.008 68.3727 234.217 68.4747C234.425 68.5767 234.611 68.7192 234.764 68.894C234.916 69.0687 235.033 69.272 235.105 69.4921C235.384 70.1665 235.604 70.8635 235.764 71.5754C236.793 75.8523 236.654 80.3262 235.362 84.5316C234.11 88.6732 232.229 92.5994 229.787 96.1741C226.32 101.31 222.271 106.031 217.721 110.244C214.825 113.009 211.761 115.594 208.546 117.983C208.465 118.023 208.392 118.079 208.333 118.148C208.274 118.217 208.23 118.298 208.204 118.385C208.178 118.471 208.169 118.563 208.18 118.653C208.19 118.743 208.219 118.83 208.264 118.909C209.471 122.346 210.255 125.917 210.597 129.544C210.959 133.012 211.049 136.503 210.867 139.985C210.718 144.956 209.854 149.88 208.302 154.606C207.863 155.921 207.272 157.181 206.539 158.359C206.129 159.032 205.612 159.634 205.009 160.142C204.482 160.618 203.811 160.905 203.102 160.957C202.393 161.009 201.687 160.823 201.096 160.43C200.492 160.064 199.952 159.604 199.497 159.066C198.355 157.694 197.39 156.185 196.624 154.574C195.025 151.446 193.733 148.174 192.379 144.94C190.96 141.344 189.335 137.833 187.512 134.424C186.504 132.54 185.272 130.784 183.844 129.194C183.48 128.793 183.078 128.43 182.69 128.055C182.126 127.481 181.409 127.082 180.624 126.904C179.838 126.727 179.018 126.779 178.262 127.054C177.022 127.446 175.847 128.02 174.775 128.756C172.349 130.434 170.089 132.34 168.027 134.449C163.857 138.546 160.019 142.957 156.074 147.267C153.446 150.139 150.819 153.01 147.921 155.657C146.606 156.906 145.186 158.041 143.676 159.047C142.738 159.691 141.687 160.154 140.578 160.411C140.154 160.506 139.715 160.507 139.291 160.417C138.867 160.326 138.467 160.145 138.119 159.886C136.737 158.878 135.653 157.516 134.984 155.944C134.243 154.231 133.805 152.402 133.692 150.539C133.341 146.029 134.131 141.668 135.398 137.364C136.956 132.329 139.114 127.498 141.826 122.975C143.996 119.221 146.354 115.612 148.724 112.002C150.451 109.481 152.005 106.848 153.377 104.119C154.595 101.558 155.44 98.8362 155.886 96.0365C156.051 94.7726 155.92 93.4878 155.503 92.2829C154.841 90.2554 153.967 88.3032 152.895 86.4585C150.718 82.5297 148.179 78.8324 145.639 75.1351C144.673 73.7275 143.688 72.3386 142.735 70.931C142.633 70.7464 142.48 70.5944 142.295 70.4925C142.109 70.3907 141.899 70.3432 141.688 70.3554C134.35 70.3554 127.011 70.3554 119.669 70.3554C119.485 70.3277 119.297 70.3523 119.126 70.4264C118.955 70.5006 118.809 70.6212 118.703 70.7746C115.63 75.2539 112.463 79.6644 109.66 84.3252C108.25 86.5667 107.063 88.9408 106.117 91.4133C105.654 92.5691 105.402 93.7977 105.371 95.0418C105.419 95.9586 105.56 96.8682 105.791 97.7569C106.482 100.818 107.634 103.756 109.209 106.472C110.613 108.974 112.213 111.345 113.78 113.741C116.858 118.282 119.666 122.998 122.19 127.867C124.58 132.534 126.27 137.525 127.207 142.682C127.9 146.078 127.932 149.576 127.301 152.985C126.941 154.988 126.078 156.867 124.793 158.447C124.406 158.871 123.987 159.264 123.539 159.623C123.081 160.03 122.521 160.304 121.918 160.415C121.315 160.525 120.693 160.467 120.121 160.248C119.021 159.867 117.985 159.323 117.048 158.634C115.163 157.269 113.397 155.747 111.767 154.086C108.061 150.439 104.637 146.535 101.137 142.694C98.0833 139.335 95.0166 135.981 91.6929 132.878C90.0942 131.336 88.3606 129.94 86.5127 128.706C85.2746 127.831 83.8738 127.212 82.3925 126.885C81.8086 126.757 81.2031 126.764 80.6225 126.906C80.0419 127.048 79.5018 127.321 79.0436 127.705C77.7355 128.802 76.5892 130.079 75.6383 131.496C73.8445 134.167 72.3154 137.006 71.0728 139.973C69.298 144.027 67.5922 148.106 65.83 152.172C65.0299 154.062 64.0579 155.876 62.9263 157.59C62.5021 158.283 62.0106 158.932 61.4589 159.529C61.0389 159.953 60.5542 160.308 60.0227 160.58C59.487 160.879 58.8743 161.012 58.2625 160.963C57.6506 160.914 57.0671 160.685 56.5861 160.305C55.9116 159.791 55.3412 159.154 54.9053 158.428C53.8759 156.776 53.0941 154.982 52.5849 153.104C51.6699 149.912 51.0609 146.64 50.7663 143.332C50.4707 140.347 50.3722 137.346 50.4715 134.348C50.6408 129.062 51.3119 123.857 53.1494 118.859C53.3062 118.433 53.1494 118.233 52.8483 118.001C48.6183 114.849 44.6407 111.373 40.9517 107.604C36.5461 103.238 32.734 98.3142 29.6131 92.9585C27.7242 89.7096 26.3413 86.1932 25.5117 82.5297C24.5665 78.4262 24.7507 74.1441 26.0448 70.1365C26.6343 68.3723 27.4495 67.9781 29.1804 68.6288C30.3041 69.0995 31.3795 69.6777 32.3913 70.3554C34.7807 71.8381 37.1387 73.3646 39.6284 74.6909C43.6454 76.8804 47.9845 78.4218 52.4846 79.2578C55.7417 79.8307 59.0581 79.9926 62.3557 79.7395C69.3294 79.2265 75.839 77.0181 82.1793 74.2279C88.7089 71.2602 94.9112 67.6225 100.686 63.3737C104.844 60.3958 108.839 57.199 112.902 54.1023C114.986 52.4616 117.175 50.959 119.456 49.6042C120.434 49.0281 121.465 48.5463 122.535 48.1653C123.474 47.807 124.479 47.6492 125.483 47.7023C126.06 47.7399 126.179 47.7711 126.11 47.0767C126.047 45.7209 125.712 44.3914 125.125 43.1667C124.774 42.466 124.417 41.7653 124.009 41.1022C122.868 39.2692 121.695 37.4487 120.535 35.6282C120.603 35.545 120.679 35.4676 120.76 35.3967C122.968 33.7076 125.188 32.0309 127.383 30.323C127.715 30.0665 127.91 30.1416 128.217 30.323C129.203 31.0275 130.393 31.391 131.606 31.3582C132.818 31.3255 133.987 30.8982 134.934 30.1416C135.067 30.0165 135.239 29.9389 135.421 29.9208C135.604 29.9027 135.787 29.9451 135.943 30.0415C137.524 30.8048 139.123 31.5305 140.703 32.2812C141.285 32.4952 141.84 32.7743 142.359 33.1132Z"></path>
<path fill="#ED7014" d="M118.822 32.7879C118.749 32.5977 118.624 32.4318 118.461 32.309C118.298 32.1863 118.104 32.1116 117.901 32.0935C115.339 31.6107 112.917 30.5681 110.808 29.0405C108.07 26.97 106.024 24.1219 104.938 20.8701C104.04 18.2941 103.547 15.595 103.477 12.8687C103.374 10.9281 103.429 8.9824 103.64 7.05055C103.64 6.96922 103.64 6.8879 103.64 6.80657C103.734 6.06835 103.734 6.06835 104.474 6.06835H111.698C111.893 6.06835 112.081 6.06835 112.269 6.06835C112.589 6.06835 112.695 5.94323 112.689 5.63669C112.689 4.85468 112.689 4.07268 112.689 3.28442C112.689 2.9591 112.764 2.77142 113.134 2.80896C113.297 2.81838 113.461 2.81838 113.624 2.80896H147.815C148.812 2.80896 148.718 2.66507 148.724 3.70983V5.25507C148.724 6.16219 148.668 6.0621 149.571 6.0621H155.911C156.312 6.0621 156.726 6.0621 157.128 6.0621C157.529 6.0621 157.686 6.23101 157.755 6.61889C157.959 8.3879 158.045 10.1686 158.012 11.949C157.967 14.8126 157.5 17.654 156.626 20.3822C155.77 23.1239 154.264 25.6196 152.236 27.658C152.161 27.733 152.104 27.8269 152.035 27.9082C149.957 28.1484 148.058 29.1959 146.749 30.8235C146.46 31.1864 146.241 31.0925 145.933 30.9486C143.368 29.7412 140.822 28.4963 138.22 27.3577C137.847 27.2535 137.526 27.016 137.318 26.6905C137.109 26.3651 137.029 25.9745 137.091 25.5935C137.142 24.5156 136.854 23.4488 136.269 22.5416C135.683 21.6344 134.828 20.932 133.823 20.5323C132.847 20.04 131.743 19.8583 130.659 20.0115C129.576 20.1648 128.566 20.6457 127.765 21.3894C126.972 22.0331 126.378 22.8877 126.052 23.8542C125.726 24.8208 125.68 25.8598 125.922 26.8509C125.972 26.9992 125.97 27.1605 125.913 27.3068C125.857 27.4532 125.751 27.5752 125.614 27.6517C124.68 28.3461 123.764 29.0656 122.842 29.7662L118.822 32.7879ZM144.435 28.3711C144.792 28.515 145.062 28.3086 145.313 28.2085C148.453 26.993 151.016 24.6374 152.487 21.6146C153.926 18.6916 154.697 15.4866 154.745 12.2306C154.782 11.6032 154.748 10.9736 154.644 10.3537H149.426C149.063 10.3537 149.088 10.604 149.075 10.8542C149.037 12.2853 148.926 13.7134 148.743 15.1334C148.125 19.3307 146.856 23.4064 144.98 27.2138L144.435 28.3711ZM116.935 28.3711C116.922 28.2973 116.905 28.2242 116.885 28.1522C114.047 22.8159 112.494 16.8933 112.35 10.8542C112.35 10.4038 112.156 10.3162 111.767 10.3099C110.25 10.3099 108.732 10.31 107.214 10.2349C106.763 10.2349 106.687 10.41 106.675 10.8042C106.521 14.0781 107.091 17.3458 108.343 20.3759C109.867 23.9857 112.319 26.707 116.044 28.1647C116.306 28.3412 116.62 28.4229 116.935 28.3962V28.3711Z"></path>
<path fill="#ED7014" d="M69.5112 65.751C65.9188 65.7448 62.409 64.6756 59.426 62.6786C56.443 60.6817 54.1209 57.8469 52.7536 54.533C51.3863 51.219 51.0353 47.5749 51.745 44.0619C52.4547 40.5489 54.1932 37.3248 56.7404 34.7978C59.2876 32.2708 62.5291 30.5544 66.0546 29.8659C69.5801 29.1774 73.231 29.5478 76.5455 30.93C79.8599 32.3123 82.6887 34.6444 84.674 37.6311C86.6592 40.6178 87.7116 44.1249 87.698 47.7086C87.7022 50.0876 87.2339 52.4438 86.3202 54.6412C85.4064 56.8387 84.0654 58.8338 82.3744 60.5113C80.6835 62.1889 78.6761 63.5156 76.4683 64.4149C74.2605 65.3143 71.8959 65.7683 69.5112 65.751Z"></path>
<path fill="#ED7014" d="M191.902 65.751C188.311 65.7435 184.804 64.6738 181.823 62.6771C178.842 60.6804 176.521 57.8465 175.155 54.534C173.789 51.2214 173.439 47.5791 174.149 44.0679C174.858 40.5566 176.596 37.3343 179.142 34.8085C181.688 32.2828 184.928 30.5671 188.451 29.8786C191.975 29.1902 195.624 29.5598 198.937 30.9408C202.25 32.3219 205.078 34.6522 207.063 37.6369C209.048 40.6216 210.101 44.1267 210.089 47.7086C210.085 50.0852 209.611 52.4377 208.694 54.6314C207.778 56.8251 206.436 58.8169 204.747 60.4928C203.058 62.1686 201.054 63.4957 198.849 64.398C196.645 65.3003 194.285 65.76 191.902 65.751Z"></path>
<path fill="#3767B0" d="M118.822 32.7879L122.836 29.7662C123.758 29.0656 124.674 28.3461 125.608 27.6517C125.745 27.5752 125.851 27.4532 125.907 27.3068C125.963 27.1605 125.966 26.9992 125.915 26.8509C125.674 25.8598 125.719 24.8208 126.046 23.8542C126.372 22.8877 126.966 22.0331 127.759 21.3894C128.56 20.6457 129.57 20.1648 130.653 20.0115C131.736 19.8583 132.841 20.04 133.817 20.5323C134.822 20.932 135.677 21.6344 136.262 22.5416C136.848 23.4488 137.135 24.5156 137.085 25.5935C137.022 25.9745 137.103 26.3651 137.311 26.6905C137.52 27.016 137.841 27.2535 138.213 27.3577C140.816 28.4963 143.362 29.7412 145.927 30.9486C146.234 31.0925 146.454 31.1864 146.742 30.8235C148.041 29.2021 149.926 28.1532 151.991 27.9019C153.046 27.8304 154.105 27.9297 155.127 28.196C155.171 28.2144 155.218 28.224 155.265 28.2242C155.312 28.2243 155.359 28.2152 155.403 28.1971C155.447 28.1791 155.486 28.1525 155.52 28.119C155.553 28.0856 155.58 28.0458 155.597 28.002L156.312 26.8259C159.766 21.183 163.223 15.5421 166.685 9.90331C166.83 9.71943 166.908 9.49255 166.908 9.25894C166.908 9.02533 166.83 8.79846 166.685 8.61457C166.08 7.70376 165.769 6.63029 165.792 5.53793C165.816 4.44557 166.173 3.38646 166.817 2.50242C167.401 1.56019 168.266 0.823097 169.29 0.393663C170.314 -0.0357712 171.446 -0.136197 172.53 0.106353C173.587 0.256617 174.574 0.71878 175.365 1.43341C176.157 2.14803 176.715 3.08245 176.97 4.11648C177.223 5.00087 177.254 5.93353 177.062 6.83295C176.87 7.73236 176.46 8.57115 175.868 9.27598C175.276 9.98082 174.52 10.5303 173.666 10.8763C172.812 11.2223 171.886 11.3543 170.968 11.2609C170.714 11.2006 170.446 11.23 170.211 11.344C169.975 11.458 169.787 11.6496 169.677 11.8865C166.098 17.7755 162.504 23.652 158.896 29.516C158.52 30.1416 158.52 30.1416 158.971 30.6734C159.775 31.6139 160.348 32.7287 160.643 33.929C160.938 35.1293 160.948 36.3819 160.672 37.5867C160.396 38.7916 159.842 39.9155 159.053 40.8687C158.265 41.822 157.264 42.5783 156.131 43.0773C154.997 43.5762 153.762 43.8041 152.525 43.7427C151.288 43.6813 150.082 43.3323 149.003 42.7236C147.925 42.1149 147.004 41.2632 146.315 40.2366C145.625 39.21 145.185 38.0368 145.03 36.8105C144.93 36.168 144.93 35.5138 145.03 34.8712C145.056 34.789 145.064 34.7025 145.054 34.617C145.045 34.5316 145.018 34.449 144.975 34.3744C144.932 34.2999 144.874 34.2349 144.805 34.1837C144.736 34.1325 144.656 34.096 144.572 34.0767C143.82 33.7889 143.13 33.3384 142.346 33.1132C141.83 32.7704 141.277 32.4871 140.697 32.2687C139.116 31.5179 137.517 30.7922 135.937 30.029C135.781 29.9326 135.598 29.8902 135.415 29.9083C135.232 29.9264 135.061 30.004 134.927 30.1291C133.981 30.8857 132.812 31.313 131.599 31.3457C130.387 31.3785 129.197 31.0149 128.211 30.3105C127.903 30.1103 127.709 30.0353 127.377 30.3105C125.182 32.0184 122.987 33.695 120.754 35.3842C120.673 35.4551 120.597 35.5325 120.528 35.6156C119.312 36.4227 118.202 37.3736 117.023 38.2307C116.747 38.4309 116.74 38.6185 116.872 38.9188C117.402 40.1336 117.665 41.4471 117.645 42.7715C117.625 44.096 117.321 45.4009 116.755 46.5991C116.189 47.7973 115.373 48.8611 114.362 49.7196C113.351 50.5781 112.168 51.2114 110.892 51.5773C109.615 51.9431 108.276 52.0331 106.962 51.8411C105.648 51.6492 104.39 51.1797 103.273 50.4641C102.156 49.7486 101.204 48.8033 100.482 47.6916C99.7603 46.5799 99.2845 45.3273 99.0866 44.0175C98.7893 42.1352 99.092 40.2074 99.9521 38.5059C100.253 37.9116 100.247 37.8803 99.7639 37.4236C96.4213 34.1142 93.0662 30.8173 89.7298 27.4953C89.6107 27.3565 89.4485 27.2614 89.2689 27.2252C89.0894 27.1889 88.9029 27.2135 88.739 27.2951C88.0192 27.48 87.2699 27.5216 86.534 27.4176C85.7981 27.3136 85.0899 27.066 84.4499 26.689C83.81 26.3119 83.2507 25.8129 82.804 25.2202C82.3574 24.6276 82.0321 23.953 81.8468 23.2349C81.6615 22.5169 81.6198 21.7695 81.724 21.0354C81.8283 20.3012 82.0765 19.5948 82.4544 18.9564C82.8324 18.3179 83.3327 17.76 83.9268 17.3144C84.5208 16.8689 85.1971 16.5444 85.9169 16.3595C87.3831 16.0924 88.8959 16.4055 90.1345 17.2324C91.3732 18.0593 92.2403 19.3349 92.5519 20.7888C92.818 22.0644 92.6271 23.3927 92.0126 24.5424C91.9638 24.6033 91.928 24.6735 91.9072 24.7486C91.8864 24.8237 91.8811 24.9023 91.8917 24.9795C91.9023 25.0567 91.9284 25.131 91.9686 25.1978C92.0088 25.2646 92.0622 25.3226 92.1255 25.3682C95.4033 28.5922 98.6727 31.8203 101.934 35.0526C102.348 35.4655 102.36 35.453 102.862 35.1026C104.548 33.8708 106.601 33.2437 108.689 33.3232C110.777 33.4027 112.777 34.1841 114.364 35.5406C114.696 35.8096 114.903 35.8534 115.248 35.5718C116.421 34.6272 117.681 33.7826 118.822 32.7879ZM108.299 37.0045C106.802 37.0153 105.371 37.6188 104.32 38.6824C103.269 39.7459 102.685 41.1823 102.696 42.6756C102.707 44.1689 103.312 45.5967 104.378 46.645C105.444 47.6933 106.884 48.2761 108.381 48.2654C109.878 48.2546 111.309 47.651 112.36 46.5875C113.411 45.524 113.995 44.0875 113.984 42.5943C113.973 41.101 113.368 39.6731 112.302 38.6248C111.236 37.5766 109.796 36.9937 108.299 37.0045ZM148.116 35.7533C148.1 37.0259 148.592 38.2526 149.482 39.1637C150.373 40.0747 151.591 40.5953 152.866 40.6111C154.142 40.6269 155.372 40.1364 156.285 39.2477C157.198 38.359 157.72 37.1448 157.736 35.8721C157.752 34.5995 157.26 33.3728 156.369 32.4618C155.928 32.0107 155.402 31.6507 154.822 31.4023C154.241 31.154 153.617 31.0221 152.985 31.0143C151.71 30.9986 150.48 31.489 149.567 32.3777C148.654 33.2664 148.132 34.4807 148.116 35.7533ZM128.737 25.6498C128.737 26.3732 129.025 27.067 129.538 27.5785C130.051 28.09 130.747 28.3774 131.472 28.3774C132.197 28.3774 132.892 28.09 133.405 27.5785C133.918 27.067 134.206 26.3732 134.206 25.6498C134.189 24.941 133.901 24.2657 133.4 23.762C132.9 23.2584 132.226 22.9646 131.516 22.9409C130.788 22.9342 130.087 23.2155 129.566 23.7231C129.045 24.2308 128.747 24.9235 128.737 25.6498ZM84.2675 21.8961C84.2688 22.4336 84.4295 22.9586 84.7295 23.405C85.0294 23.8515 85.4552 24.1993 85.953 24.4047C86.4509 24.6101 86.9986 24.6638 87.527 24.5591C88.0554 24.4544 88.5409 24.196 88.9223 23.8164C89.3037 23.4368 89.5639 22.953 89.6701 22.4261C89.7762 21.8992 89.7236 21.3528 89.5189 20.8557C89.3142 20.3585 88.9665 19.933 88.5196 19.6328C88.0728 19.3325 87.5468 19.171 87.0081 19.1685C86.279 19.1751 85.5819 19.4687 85.0687 19.9854C84.5554 20.5021 84.2675 21.2 84.2675 21.9274V21.8961ZM171.439 8.32054C171.798 8.33052 172.155 8.26978 172.49 8.14179C172.825 8.01379 173.132 7.82106 173.392 7.57465C173.653 7.32823 173.862 7.03297 174.008 6.70578C174.153 6.3786 174.233 6.02593 174.242 5.66797C174.244 4.95883 173.97 4.27663 173.477 3.76536C172.985 3.2541 172.312 2.95379 171.602 2.92783C170.885 2.90626 170.189 3.16965 169.667 3.66006C169.145 4.15048 168.839 4.82773 168.817 5.54285C168.796 6.25797 169.06 6.95237 169.551 7.47328C170.043 7.9942 170.722 8.29897 171.439 8.32054Z"></path>
<path fill="#ED7014" d="M128.737 25.6498C128.744 24.9257 129.037 24.2336 129.553 23.7239C130.068 23.2143 130.765 22.9284 131.491 22.9284C132.207 22.946 132.89 23.2387 133.396 23.7457C133.901 24.2526 134.192 24.9347 134.206 25.6498C134.206 26.3699 133.919 27.0605 133.409 27.5697C132.898 28.0788 132.206 28.3649 131.484 28.3649C130.762 28.3649 130.07 28.0788 129.56 27.5697C129.049 27.0605 128.763 26.3699 128.763 25.6498H128.737Z"></path>
</g>
<defs>
<clipPath id="clip0">
<rect fill="white" height="233" width="263"></rect>
</clipPath>
</defs>
</svg>
