<svg viewBox="0 0 1000 1000" version="1.1" xmlns="http://www.w3.org/2000/svg" data-name="Layer 2" id="Layer_2">
  <defs>
    <style>
      .cls-1 {
        fill: #056be7;
      }

      .cls-1, .cls-2, .cls-3, .cls-4, .cls-5, .cls-6, .cls-7 {
        stroke-width: 0px;
      }

      .cls-2 {
        fill: #f36e00;
      }

      .cls-3 {
        fill: #f36e00;
      }

      .cls-4 {
        fill: #3b6bb4;
      }

      .cls-5 {
        fill: #4e4d50;
      }

      .cls-6 {
        fill: #f37920;
      }

      .cls-7 {
        fill: #f36f21;
      }
    </style>
  </defs>
  <g>
    <path d="M126.3,852.6h6c5.2,0,9.9,1.5,9.9,7.2s-4,7.5-9.1,7.5h-2v9h-4.7v-23.7ZM131,863.5h1.7c2.4,0,4.5-.8,4.5-3.5s-2.1-3.7-4.5-3.7h-1.7v7.2Z" class="cls-5"></path>
    <path d="M161.1,852.1c7.4,0,11.6,5,11.6,12.2s-4.1,12.3-11.6,12.3-11.6-5.1-11.6-12.3,4.1-12.2,11.6-12.2ZM161.1,872.9c4.8,0,6.6-4.3,6.6-8.6s-1.9-8.4-6.6-8.4-6.6,4.3-6.6,8.4,1.8,8.6,6.6,8.6Z" class="cls-5"></path>
    <path d="M179.7,852.6h5l4.4,18.9h0l4-18.9h6.4l4.2,18.9h0l4.4-18.9h4.6l-6.2,23.7h-6.1l-4.3-18.9h0l-4.2,18.9h-6.1l-6.3-23.7Z" class="cls-5"></path>
    <path d="M222.8,852.6h14v3.7h-9.2v5.8h8.4v3.7h-8.4v6.6h9.3v3.7h-14v-23.7Z" class="cls-5"></path>
    <path d="M248,852.6h5.1c5.1,0,11.2-.2,11.2,6.4s-1.9,5.1-4.9,5.5h0c1.3.2,2,1.5,2.5,2.5l3.8,9.3h-5.3l-2.8-7.4c-.7-1.8-1.3-2.4-3.3-2.4h-1.5v9.8h-4.7v-23.7ZM252.7,862.7h1.6c2.3,0,5-.3,5-3.3s-2.6-3.1-5-3.1h-1.6v6.4Z" class="cls-5"></path>
    <path d="M275.9,852.6h14v3.7h-9.2v5.8h8.4v3.7h-8.4v6.6h9.3v3.7h-14v-23.7Z" class="cls-5"></path>
    <path d="M301.5,852.6h6.5c7.3,0,13.7,2.4,13.7,11.8s-6.4,11.8-13.7,11.8h-6.5v-23.7ZM306.3,872.5h2.6c4,0,7.8-3,7.8-8.1s-3.8-8.1-7.8-8.1h-2.6v16.2Z" class="cls-5"></path>
    <path d="M349,852.6h8.3c3.1,0,7.6.9,7.6,6.1s-1.9,4.8-4.7,5.3h0c3.2.4,5.4,2.5,5.4,5.5,0,6-5.4,6.9-8.3,6.9h-8.3v-23.7ZM353.7,862.1h1.9c2,0,4.5-.4,4.5-2.9s-2.4-3-4.6-3h-1.8v5.8ZM353.7,872.5h2.2c2.2,0,4.9-.5,4.9-3.3s-2.5-3.6-4.9-3.6h-2.2v6.9Z" class="cls-5"></path>
    <path d="M382.7,866.9l-8.6-14.3h5.6l5.6,9.9,5.7-9.9h5l-8.5,14.3v9.4h-4.7v-9.4Z" class="cls-5"></path>
    <path d="M440.5,857.1c-1.8-.8-4.2-1.3-6.1-1.3-5.5,0-8.6,3.7-8.6,8.6s3,8.4,8,8.4,2.3-.1,3.1-.3v-6.2h-5v-3.7h9.6v12.8c-2.5.7-5.1,1.2-7.7,1.2-7.7,0-13-3.8-13-11.8s5-12.7,13-12.7,4.9.4,7,1l-.3,4Z" class="cls-5"></path>
    <path d="M463.8,852.1c7.4,0,11.6,5,11.6,12.2s-4.1,12.3-11.6,12.3-11.6-5.1-11.6-12.3,4.1-12.2,11.6-12.2ZM463.8,872.9c4.8,0,6.6-4.3,6.6-8.6s-1.9-8.4-6.6-8.4-6.6,4.3-6.6,8.4,1.8,8.6,6.6,8.6Z" class="cls-5"></path>
    <path d="M484.1,852.6h5.1l6.1,18.6h0l6-18.6h4.7l-8,23.7h-5.8l-8.1-23.7Z" class="cls-5"></path>
    <path d="M520.2,856.3h-6.8v-3.7h18.3v3.7h-6.8v19.9h-4.7v-19.9Z" class="cls-6"></path>
    <path d="M541.5,852.6h14v3.7h-9.2v5.8h8.4v3.7h-8.4v6.6h9.3v3.7h-14v-23.7Z" class="cls-6"></path>
    <path d="M584.3,875.9c-1.7.4-3.6.7-5.4.7-7.7,0-13-3.8-13-11.8s5-12.7,13-12.7,3.6.3,5.4,1l-.3,4c-1.8-1-3.4-1.3-5.1-1.3-4.9,0-7.9,3.7-7.9,8.6s3,8.4,8,8.4,4.1-.4,5.2-1l.2,4Z" class="cls-6"></path>
    <path d="M594.6,852.6h4.7v9.6h9.5v-9.6h4.7v23.7h-4.7v-10.4h-9.5v10.4h-4.7v-23.7Z" class="cls-6"></path>
    <path d="M654.8,856.9c-1.5-.6-3.2-1-4.8-1s-3.7.7-3.7,3.3c0,4.1,10.4,2.4,10.4,10.3s-4.1,7.2-8.9,7.2-3.7-.3-6.1-.9l.4-4.3c1.6.9,3.5,1.5,5.4,1.5s4.2-.9,4.2-3.1c0-4.5-10.4-2.6-10.4-10.5s4.1-7.2,8.3-7.2,3.9.3,5.7.8l-.4,3.9Z" class="cls-5"></path>
    <path d="M667.3,852.6h4.7v23.7h-4.7v-23.7Z" class="cls-5"></path>
    <path d="M683.7,852.6h5.8l9,17.7h0v-17.7h4.5v23.7h-5.8l-9.1-17.7h0v17.7h-4.5v-23.7Z" class="cls-5"></path>
    <path d="M733.6,857.1c-1.8-.8-4.2-1.3-6.1-1.3-5.5,0-8.6,3.7-8.6,8.6s3,8.4,8,8.4,2.3-.1,3.1-.3v-6.2h-5v-3.7h9.6v12.8c-2.5.7-5.1,1.2-7.7,1.2-7.7,0-13-3.8-13-11.8s5-12.7,13-12.7,4.9.4,7,1l-.3,4Z" class="cls-5"></path>
    <path d="M753.2,852.6h5.4l9.3,23.7h-5.3l-2-5.4h-9.6l-2.1,5.4h-4.9l9.2-23.7ZM755.8,857.3h0l-3.4,9.8h6.9l-3.4-9.8Z" class="cls-5"></path>
    <path d="M777.3,852.6h6c5.2,0,9.9,1.5,9.9,7.2s-4,7.5-9.1,7.5h-2v9h-4.7v-23.7ZM782,863.5h1.7c2.4,0,4.5-.8,4.5-3.5s-2.1-3.7-4.5-3.7h-1.7v7.2Z" class="cls-5"></path>
    <path d="M813.7,852.1c7.4,0,11.6,5,11.6,12.2s-4.1,12.3-11.6,12.3-11.6-5.1-11.6-12.3,4.1-12.2,11.6-12.2ZM813.7,872.9c4.8,0,6.6-4.3,6.6-8.6s-1.9-8.4-6.6-8.4-6.6,4.3-6.6,8.4,1.8,8.6,6.6,8.6Z" class="cls-5"></path>
    <path d="M836,852.6h5.1c5.1,0,11.2-.2,11.2,6.4s-1.9,5.1-4.9,5.5h0c1.3.2,2,1.5,2.5,2.5l3.8,9.3h-5.3l-2.8-7.4c-.7-1.8-1.3-2.4-3.3-2.4h-1.5v9.8h-4.7v-23.7ZM840.8,862.7h1.6c2.3,0,5-.3,5-3.3s-2.6-3.1-5-3.1h-1.6v6.4Z" class="cls-5"></path>
    <path d="M863.9,852.6h14v3.7h-9.2v5.8h8.4v3.7h-8.4v6.6h9.3v3.7h-14v-23.7Z" class="cls-5"></path>
  </g>
  <g id="Logo">
    <g data-name="Logo 1 Text" id="Logo_1_Text">
      <path d="M168.6,695.1l-4.4-11.2h-22l-4.2,11.2h-14.9l23.9-56.9h13.3l23.6,56.9h-15.3ZM153.4,653.4l-7.2,19.5h14.3l-7.1-19.5Z" class="cls-3"></path>
      <path d="M230.3,691.4c0,3.9-.6,7.3-1.7,10.2s-2.7,5.3-4.7,7.2c-2,1.9-4.5,3.3-7.4,4.3-2.9.9-6.1,1.4-9.7,1.4s-7.2-.5-10.9-1.6c-3.7-1.1-6.9-2.6-9.7-4.7l6.6-9.4c1.9,1.7,4.1,3,6.4,3.8,2.3.8,4.6,1.2,6.9,1.2,3.9,0,6.7-1,8.6-3.1,1.8-2,2.8-4.7,2.8-8.1v-2.4h-.2c-1.2,1.6-2.9,2.9-5,3.9-2.1,1-4.5,1.4-7.1,1.4s-5.8-.5-8.1-1.6c-2.4-1.1-4.4-2.6-6-4.5-1.6-1.9-2.9-4.1-3.7-6.5-.9-2.5-1.3-5.1-1.3-7.9s.4-5.4,1.3-8c.9-2.5,2.1-4.7,3.7-6.7,1.6-1.9,3.6-3.5,6-4.6,2.4-1.2,5-1.7,8-1.7s4.9.5,7.2,1.5c2.3,1,4.1,2.6,5.5,4.7h.2v-5.1h12.5v36.2ZM217.8,674.9c0-1.3-.2-2.6-.7-3.9-.5-1.2-1.1-2.3-2-3.3-.9-.9-1.9-1.7-3.1-2.2-1.2-.5-2.5-.8-4-.8s-2.8.3-4,.8c-1.2.5-2.1,1.3-2.9,2.2-.8.9-1.4,2-1.8,3.2-.4,1.2-.6,2.5-.6,3.9s.2,2.6.6,3.9c.4,1.2,1,2.3,1.8,3.3.8.9,1.8,1.7,2.9,2.2,1.2.6,2.5.8,4,.8s2.9-.3,4.1-.8c1.2-.6,2.2-1.3,3.1-2.2.8-.9,1.5-2,1.9-3.2.5-1.2.7-2.5.7-3.9Z" class="cls-3"></path>
      <path d="M280.5,675.6v1.6c0,.5,0,1,0,1.5h-29c.1,1.1.4,2.1,1,3.1.6.9,1.3,1.7,2.2,2.4.9.7,1.9,1.2,3,1.6,1.1.4,2.2.6,3.4.6,2.1,0,3.9-.4,5.3-1.2,1.4-.8,2.6-1.8,3.5-3l9.2,5.8c-1.9,2.7-4.4,4.8-7.4,6.3-3.1,1.5-6.7,2.2-10.7,2.2s-5.8-.5-8.5-1.4c-2.7-.9-5-2.3-7-4.1-2-1.8-3.6-4-4.7-6.6-1.2-2.6-1.7-5.6-1.7-9s.6-6.2,1.7-8.9c1.1-2.7,2.7-4.9,4.6-6.7,1.9-1.8,4.2-3.3,6.8-4.3,2.6-1,5.5-1.5,8.5-1.5s5.6.5,8.1,1.5c2.5,1,4.6,2.4,6.3,4.3,1.8,1.9,3.1,4.1,4.1,6.8,1,2.7,1.5,5.7,1.5,9.2ZM268.3,670.5c0-2.1-.7-3.9-2-5.4-1.3-1.5-3.3-2.2-5.9-2.2s-2.5.2-3.5.6c-1.1.4-2,1-2.8,1.6-.8.7-1.4,1.5-1.9,2.5-.5.9-.8,1.9-.8,2.9h16.9Z" class="cls-3"></path>
      <path d="M314.9,695.1v-21.9c0-1.1,0-2.2-.3-3.2-.2-1-.5-1.9-.9-2.7-.4-.8-1-1.4-1.8-1.8-.8-.5-1.8-.7-2.9-.7s-2.2.2-3.1.7c-.9.5-1.6,1.1-2.2,1.9-.6.8-1,1.7-1.3,2.8-.3,1-.4,2.1-.4,3.3v21.7h-13.3v-40h12.8v5.5h.2c.5-.9,1.1-1.7,1.9-2.5.8-.8,1.7-1.5,2.7-2.1,1-.6,2.2-1.1,3.4-1.4,1.2-.4,2.5-.6,3.9-.6,2.7,0,5,.5,6.8,1.4,1.9,1,3.4,2.2,4.5,3.7,1.2,1.5,2,3.3,2.5,5.3.5,2,.8,4,.8,5.9v24.7h-13.3Z" class="cls-3"></path>
      <path d="M365.8,668.1c-.8-1-1.8-1.7-3.1-2.3-1.3-.6-2.6-.9-3.9-.9s-2.7.3-3.8.8c-1.1.6-2.1,1.3-2.9,2.3-.8.9-1.4,2-1.9,3.3-.5,1.2-.7,2.5-.7,3.9s.2,2.7.6,3.9c.4,1.2,1.1,2.3,1.9,3.3.8.9,1.8,1.7,3,2.2,1.2.5,2.5.8,3.9.8s2.7-.3,4-.8c1.3-.5,2.4-1.2,3.2-2.2l7.3,8.9c-1.7,1.6-3.8,2.9-6.4,3.8-2.6.9-5.4,1.4-8.4,1.4s-6.1-.5-8.8-1.4c-2.7-1-5.1-2.4-7.1-4.2-2-1.8-3.6-4.1-4.8-6.7-1.2-2.6-1.7-5.6-1.7-8.9s.6-6.2,1.7-8.8c1.2-2.6,2.7-4.9,4.8-6.7,2-1.8,4.4-3.3,7.1-4.3,2.7-1,5.7-1.5,8.8-1.5s2.9.1,4.3.4c1.4.3,2.8.6,4.1,1.1,1.3.5,2.5,1,3.6,1.7,1.1.7,2,1.4,2.9,2.2l-7.6,8.8Z" class="cls-3"></path>
      <path d="M401.1,701.2c-.8,2.1-1.7,3.9-2.7,5.6-1,1.6-2.2,3-3.5,4.2-1.4,1.2-3,2-4.8,2.6-1.8.6-4,.9-6.5.9s-2.5,0-3.8-.2c-1.3-.2-2.5-.4-3.4-.6l1.4-11.1c.6.2,1.4.4,2.1.5.8.1,1.5.2,2.1.2,2,0,3.5-.5,4.4-1.4.9-.9,1.7-2.3,2.3-4l1.3-3.3-16.7-39.4h14.6l8.9,25.7h.2l8-25.7h14l-17.9,46Z" class="cls-3"></path>
      <path d="M485.6,694.1c-3.7,1.7-8,2.5-12.8,2.5s-8.4-.7-12.2-2.2c-3.7-1.4-6.9-3.5-9.7-6.1-2.7-2.7-4.9-5.8-6.4-9.5-1.6-3.7-2.3-7.8-2.3-12.2s.8-8.7,2.4-12.4c1.6-3.7,3.8-6.8,6.5-9.4,2.8-2.6,6.1-4.6,9.8-6,3.7-1.4,7.8-2.1,12.1-2.1s8,.7,11.8,2.1c3.9,1.4,7,3.5,9.4,6.2l-9.3,9.3c-1.3-1.8-3-3.1-5.1-3.9-2.1-.9-4.2-1.3-6.4-1.3s-4.6.4-6.6,1.3c-2,.9-3.7,2.1-5.2,3.7-1.4,1.6-2.6,3.4-3.4,5.5-.8,2.1-1.2,4.4-1.2,6.9s.4,4.9,1.2,7.1c.8,2.1,1.9,4,3.3,5.5,1.4,1.5,3.1,2.7,5.1,3.6,2,.9,4.1,1.3,6.5,1.3s5.1-.5,7.1-1.6c2-1.1,3.7-2.5,4.9-4.2l9.6,9c-2.5,2.9-5.6,5.2-9.3,6.9Z" class="cls-3"></path>
      <path d="M526.4,695.1v-21.7c0-1.1,0-2.2-.2-3.2-.2-1-.5-1.9-.9-2.7-.5-.8-1.1-1.4-1.8-1.8-.8-.5-1.7-.7-2.9-.7-2.3,0-4.1.8-5.3,2.5-1.2,1.6-1.8,3.7-1.8,6.1v21.6h-13.2v-60.7h13.2v25.8h.2c.9-1.6,2.4-3,4.3-4.3,2-1.3,4.4-1.9,7.1-1.9s5,.5,6.9,1.4c1.8,1,3.3,2.2,4.5,3.7,1.2,1.5,2,3.3,2.5,5.3.5,2,.8,4,.8,5.9v24.7h-13.3Z" class="cls-3"></path>
      <path d="M549.1,660.6c2.4-2.3,5.1-3.9,8.2-5.1,3.1-1.1,6.3-1.7,9.6-1.7s6.2.4,8.6,1.2c2.3.8,4.2,2.1,5.7,3.9,1.4,1.7,2.5,3.9,3.2,6.6.7,2.7,1,5.8,1,9.4v20.2h-12v-4.3h-.2c-1,1.7-2.6,2.9-4.6,3.9s-4.3,1.4-6.7,1.4-3.3-.2-5-.6c-1.7-.4-3.3-1.1-4.7-2.1-1.4-1-2.6-2.2-3.5-3.9-.9-1.6-1.4-3.6-1.4-5.9s.8-5.2,2.4-7c1.6-1.8,3.6-3.1,6.1-4.1,2.5-1,5.3-1.6,8.3-1.9,3.1-.3,6-.5,8.9-.5v-.6c0-2-.7-3.4-2.1-4.4-1.4-.9-3.1-1.4-5.1-1.4s-3.7.4-5.4,1.2c-1.7.8-3.2,1.8-4.5,2.9l-6.7-7.1ZM573.3,677.7h-1.7c-1.4,0-2.9,0-4.4.2-1.5.1-2.8.4-3.9.8-1.2.4-2.1.9-2.9,1.6-.8.7-1.1,1.7-1.1,2.9s.2,1.4.5,1.9c.3.5.8,1,1.3,1.3.5.3,1.2.6,1.8.7.7.1,1.4.2,2,.2,2.7,0,4.7-.7,6.1-2.2,1.4-1.5,2.1-3.5,2.1-6v-1.4Z" class="cls-3"></path>
      <path d="M646.2,695.1v-21.9c0-1.1,0-2.2-.2-3.3-.2-1-.5-1.9-.9-2.7-.4-.7-1-1.4-1.7-1.8-.7-.5-1.7-.7-2.9-.7s-2.1.2-2.9.7c-.8.5-1.5,1.1-2.1,1.9-.6.8-1,1.7-1.2,2.8-.3,1-.4,2.1-.4,3.3v21.6h-13.2v-22.8c0-2.3-.5-4.1-1.4-5.5-.9-1.3-2.4-2-4.3-2s-3.7.8-4.9,2.5c-1.2,1.7-1.7,3.7-1.7,6.1v21.7h-13.3v-40h12.8v5.5h.2c.5-.9,1.1-1.7,1.8-2.5.7-.8,1.6-1.5,2.6-2.1,1-.6,2.2-1.1,3.4-1.5,1.3-.4,2.6-.6,4.1-.6,2.9,0,5.3.6,7.3,1.8,2,1.2,3.6,2.9,4.7,5.1,1.3-2.1,3.1-3.7,5.1-5,2.1-1.2,4.6-1.8,7.6-1.8s5,.5,6.9,1.5c1.8,1,3.3,2.3,4.5,3.9,1.1,1.6,1.9,3.3,2.4,5.3.5,2,.8,3.9.8,5.7v24.7h-13.2Z" class="cls-3"></path>
      <path d="M713.8,675c0,2.8-.4,5.5-1.3,8-.9,2.6-2.1,4.8-3.7,6.8-1.6,2-3.6,3.5-6,4.7-2.4,1.2-5,1.8-8,1.8s-4.8-.5-7-1.5c-2.2-1-3.9-2.3-5.1-4.1h-.2v23.7h-13.2v-59.3h12.5v4.9h.2c1.2-1.6,2.9-3,5.1-4.2,2.2-1.2,4.7-1.8,7.7-1.8s5.5.6,7.9,1.7c2.4,1.1,4.4,2.7,6,4.6s2.9,4.2,3.8,6.7c.9,2.5,1.3,5.2,1.3,8ZM701.1,675c0-1.3-.2-2.5-.6-3.8-.4-1.2-1-2.3-1.8-3.3-.8-.9-1.8-1.7-2.9-2.3-1.2-.6-2.5-.9-4.1-.9s-2.8.3-4,.9c-1.2.6-2.2,1.4-3,2.3-.8,1-1.5,2.1-1.9,3.3-.5,1.2-.7,2.5-.7,3.8s.2,2.5.7,3.8c.5,1.2,1.1,2.3,1.9,3.3.8,1,1.8,1.7,3,2.3,1.2.6,2.5.9,4,.9s2.9-.3,4.1-.9c1.2-.6,2.2-1.4,2.9-2.3.8-1,1.4-2.1,1.8-3.3.4-1.3.6-2.5.6-3.8Z" class="cls-2"></path>
      <path d="M736.4,642.4c0,1-.2,2-.6,2.9-.4.9-.9,1.6-1.6,2.3-.7.6-1.5,1.2-2.4,1.5-.9.4-1.9.6-2.9.6-2.1,0-3.9-.7-5.4-2.1-1.4-1.4-2.2-3.1-2.2-5.1s.2-1.9.6-2.8c.4-.9.9-1.6,1.6-2.3.7-.6,1.5-1.2,2.4-1.6.9-.4,1.9-.6,3-.6s2,.2,2.9.6c.9.4,1.7.9,2.4,1.5.7.6,1.2,1.4,1.6,2.3.4.9.6,1.8.6,2.9ZM722.3,695.1v-40h13.2v40h-13.2Z" class="cls-3"></path>
      <path d="M788.3,675c0,3.3-.6,6.2-1.8,8.9-1.2,2.7-2.8,4.9-4.8,6.7-2,1.8-4.4,3.3-7.1,4.3-2.7,1-5.5,1.5-8.6,1.5s-5.9-.5-8.6-1.5c-2.7-1-5.1-2.5-7.1-4.3-2-1.8-3.6-4.1-4.8-6.7-1.2-2.7-1.8-5.6-1.8-8.9s.6-6.2,1.8-8.8c1.2-2.6,2.8-4.8,4.8-6.7,2-1.8,4.4-3.2,7.1-4.2,2.7-1,5.6-1.4,8.6-1.4s5.9.5,8.6,1.4c2.7,1,5,2.4,7.1,4.2,2,1.8,3.6,4,4.8,6.7,1.2,2.6,1.8,5.6,1.8,8.8ZM775.6,675c0-1.3-.2-2.5-.6-3.8-.4-1.2-1-2.3-1.8-3.3-.8-.9-1.8-1.7-3-2.3-1.2-.6-2.5-.9-4.1-.9s-2.9.3-4.1.9-2.2,1.4-2.9,2.3c-.8.9-1.4,2-1.8,3.3-.4,1.2-.6,2.5-.6,3.8s.2,2.5.6,3.8c.4,1.2,1,2.3,1.8,3.3.8,1,1.8,1.8,3,2.4,1.2.6,2.5.9,4.1.9s2.9-.3,4.1-.9c1.2-.6,2.2-1.4,3-2.4.8-1,1.4-2.1,1.8-3.3.4-1.2.6-2.5.6-3.8Z" class="cls-3"></path>
      <path d="M822.9,695.1v-21.9c0-1.1,0-2.2-.3-3.2-.2-1-.5-1.9-.9-2.7-.4-.8-1-1.4-1.8-1.8-.8-.5-1.8-.7-2.9-.7s-2.2.2-3.1.7c-.9.5-1.6,1.1-2.2,1.9-.6.8-1,1.7-1.3,2.8-.3,1-.4,2.1-.4,3.3v21.7h-13.3v-40h12.8v5.5h.2c.5-.9,1.1-1.7,1.9-2.5.8-.8,1.7-1.5,2.7-2.1,1-.6,2.2-1.1,3.4-1.4,1.2-.4,2.5-.6,3.9-.6,2.7,0,5,.5,6.8,1.4,1.9,1,3.4,2.2,4.5,3.7,1.2,1.5,2,3.3,2.5,5.3.5,2,.8,4,.8,5.9v24.7h-13.3Z" class="cls-3"></path>
      <path d="M869.7,666.9c-1.1-1-2.3-1.9-3.8-2.6-1.4-.7-3-1-4.6-1s-2.4.2-3.4.7c-1,.5-1.6,1.3-1.6,2.5s.6,1.9,1.7,2.4c1.2.5,3,1,5.6,1.6,1.5.3,3,.8,4.5,1.4,1.5.6,2.9,1.4,4.1,2.3,1.2,1,2.2,2.1,3,3.5.7,1.4,1.1,3.1,1.1,5s-.5,4.6-1.5,6.4c-1,1.7-2.3,3.1-4,4.2-1.6,1.1-3.5,1.8-5.5,2.3-2,.5-4.1.7-6.1.7-3.3,0-6.5-.5-9.6-1.6-3.1-1-5.7-2.6-7.8-4.6l7.4-7.8c1.2,1.3,2.6,2.4,4.3,3.2,1.7.9,3.5,1.3,5.5,1.3s2.1-.3,3.2-.8c1-.5,1.6-1.4,1.6-2.7s-.6-2.1-1.9-2.7c-1.3-.6-3.3-1.2-6-1.8-1.4-.3-2.8-.7-4.2-1.3-1.4-.5-2.6-1.3-3.7-2.2-1.1-.9-2-2-2.7-3.4-.7-1.3-1-2.9-1-4.8s.5-4.5,1.5-6.1c1-1.7,2.3-3.1,3.9-4.1,1.6-1.1,3.4-1.9,5.3-2.4,2-.5,3.9-.8,5.8-.8,3,0,5.9.5,8.8,1.4,2.9.9,5.3,2.3,7.3,4.2l-7.2,7.5Z" class="cls-3"></path>
      <path d="M328.6,771.4c0,3.3-.6,6.2-1.8,8.9-1.2,2.7-2.8,4.9-4.8,6.7-2,1.8-4.4,3.3-7.1,4.3-2.7,1-5.5,1.5-8.6,1.5s-5.9-.5-8.6-1.5c-2.7-1-5.1-2.5-7.1-4.3-2-1.8-3.6-4.1-4.8-6.7-1.2-2.7-1.8-5.6-1.8-8.9s.6-6.2,1.8-8.8c1.2-2.6,2.8-4.8,4.8-6.7,2-1.8,4.4-3.2,7.1-4.2,2.7-1,5.6-1.4,8.6-1.4s5.9.5,8.6,1.4c2.7,1,5,2.4,7.1,4.2,2,1.8,3.6,4,4.8,6.7,1.2,2.6,1.8,5.6,1.8,8.8ZM315.9,771.4c0-1.3-.2-2.5-.6-3.8-.4-1.2-1-2.3-1.8-3.3-.8-.9-1.8-1.7-3-2.3-1.2-.6-2.5-.9-4.1-.9s-2.9.3-4.1.9c-1.2.6-2.2,1.4-2.9,2.3-.8.9-1.4,2-1.8,3.3-.4,1.2-.6,2.5-.6,3.8s.2,2.5.6,3.8c.4,1.2,1,2.3,1.8,3.3.8,1,1.8,1.8,3,2.4,1.2.6,2.5.9,4.1.9s2.9-.3,4.1-.9c1.2-.6,2.2-1.4,3-2.4.8-1,1.4-2.1,1.8-3.3.4-1.2.6-2.5.6-3.8Z" class="cls-3"></path>
      <path d="M361.8,740.5c-.5-.2-1-.3-1.7-.4-.6-.1-1.3-.2-1.9-.2-1.2,0-2.2.2-3,.6-.8.4-1.3,1-1.8,1.7-.4.7-.7,1.5-.9,2.5-.2.9-.2,1.8-.2,2.7v4h8.9v9.8h-8.9v30.2h-13.2v-30.2h-7.3v-9.8h7.3v-3.9c0-2.5.3-4.8.8-7,.5-2.2,1.5-4.2,2.8-5.9,1.3-1.7,3.1-3,5.3-4,2.2-1,5-1.5,8.3-1.5s2.2,0,3.3.2c1.1.1,2.1.3,3,.6l-.9,10.4Z" class="cls-3"></path>
      <path d="M448.2,791.5h-13.6l-11.2-38.5h-.2l-11.2,38.5h-13.7l-16.1-56.9h14.8l9,37.8h.2l10.1-37.8h14.3l10.2,37.8h.2l9.2-37.8h14.3l-16.2,56.9Z" class="cls-1"></path>
      <path d="M531,762.8c0,4.5-.8,8.6-2.3,12.3-1.6,3.7-3.7,6.9-6.5,9.6-2.8,2.7-6,4.7-9.8,6.1-3.8,1.4-7.9,2.2-12.4,2.2s-8.6-.7-12.3-2.2c-3.8-1.4-7-3.5-9.8-6.1-2.8-2.7-4.9-5.8-6.5-9.6-1.6-3.7-2.3-7.8-2.3-12.3s.8-8.7,2.3-12.3c1.6-3.7,3.7-6.8,6.5-9.4,2.8-2.6,6-4.6,9.8-5.9,3.8-1.4,7.9-2.1,12.3-2.1s8.6.7,12.4,2.1c3.8,1.4,7.1,3.4,9.8,5.9,2.8,2.6,4.9,5.7,6.5,9.4,1.6,3.7,2.3,7.8,2.3,12.3ZM516.3,762.8c0-2.5-.4-4.8-1.2-6.9-.8-2.1-1.9-4-3.3-5.5-1.4-1.5-3.1-2.7-5.1-3.6-2-.9-4.2-1.3-6.6-1.3s-4.6.4-6.6,1.3c-2,.9-3.7,2.1-5.1,3.6-1.4,1.5-2.6,3.4-3.3,5.5-.8,2.1-1.2,4.4-1.2,6.9s.4,4.9,1.2,7.1c.8,2.2,1.9,4,3.3,5.6,1.4,1.6,3.1,2.8,5.1,3.7,2,.9,4.2,1.3,6.6,1.3s4.6-.4,6.6-1.3c2-.9,3.7-2.1,5.1-3.7,1.4-1.6,2.6-3.4,3.4-5.6.8-2.2,1.2-4.5,1.2-7.1Z" class="cls-1"></path>
      <path d="M583.3,791.6c-3.7.9-7.8,1.4-12.2,1.4s-8.7-.7-12.6-2.2c-3.8-1.4-7.1-3.5-9.9-6.1-2.8-2.6-4.9-5.8-6.5-9.4-1.6-3.7-2.3-7.8-2.3-12.2s.8-8.7,2.4-12.4c1.6-3.7,3.8-6.8,6.5-9.4,2.8-2.6,6.1-4.6,9.8-6,3.7-1.4,7.8-2.1,12.1-2.1s8.7.7,12.5,2c3.9,1.4,7,3.2,9.4,5.5l-8.7,9.9c-1.3-1.6-3.1-2.8-5.3-3.8-2.2-1-4.7-1.5-7.5-1.5s-4.6.4-6.7,1.3c-2,.9-3.8,2.1-5.3,3.7-1.5,1.6-2.7,3.5-3.5,5.6-.8,2.2-1.2,4.5-1.2,7.1s.4,5,1.1,7.2c.7,2.2,1.9,4.1,3.3,5.7,1.5,1.6,3.3,2.8,5.5,3.7,2.2.9,4.6,1.3,7.4,1.3s3.1-.1,4.6-.4c1.4-.2,2.8-.6,4-1.2v-10.4h0v-11.1h12.6v30.1c-2.8,1.4-6,2.6-9.8,3.5Z" class="cls-1"></path>
      <path d="M645.2,791.5l-4.4-11.2h-22l-4.2,11.2h-14.9l23.9-56.9h13.3l23.6,56.9h-15.3ZM630,749.8l-7.2,19.5h14.3l-7.1-19.5Z" class="cls-1"></path>
      <path d="M709.4,791.5l-4.4-11.2h-22l-4.2,11.2h-14.9l23.9-56.9h13.3l23.6,56.9h-15.3ZM694.2,749.8l-7.2,19.5h14.3l-7.1-19.5Z" class="cls-1"></path>
    </g>
    <g data-name="Logo 1 Icon" id="Logo_1_Icon">
      <path d="M329.4,347.9c87.8-25.4,133.1-98.9,159.7-85.6,26.6,13.3-68.4,106.5-63.7,136.9,4.7,30.4,21.8,43.7,44.7,85.6,22.8,41.8,26.4,85.4,5.7,98.9-23.3,15.2-98.9-114.1-125.5-93.2-26.6,20.9-38,94.5-58.9,95.7-20.9,1.2-32.3-78.8-15.2-122.3,0,0-101-71.6-77.9-139.3,7.6-22.3,45.6,48,131.2,23.3Z" class="cls-3"></path>
      <circle r="52" cy="260.8" cx="322.5" class="cls-3"></circle>
      <path d="M575,141.3h-25.5v-9.4h-103.2v9.4h-25.5s-11.5,65.2,42.2,75.1c19.8,33.4,25,32.8,20.3,58.4-20.8,0-24.4,0-24.4,0v28.5h-11.6l.5,22.7h100.1l.5-22.7h-11.6v-28.5s-3.5,0-24.4,0c-4.7-25.6.5-25,20.3-58.4,53.7-9.9,42.2-75.1,42.2-75.1ZM550.4,153.5l16.2-.3c1.1,14.2-3,44.6-29.8,52.6,9.2-17.5,13.7-35.3,13.7-52.4ZM429.1,153.3l16.2.3c0,17,4.5,34.9,13.7,52.4-26.8-8-30.9-38.5-29.8-52.6Z" class="cls-7"></path>
      <path d="M615.9,123.8c-8.9-.6-16.7,6.1-17.3,15.1-.3,4.3,1.1,8.3,3.6,11.3l-33.5,54.8c-1.8-.6-3.7-1-5.6-1.1-8.2-.6-15.7,3.3-20.1,9.5l-27.1-12.7c.1-.7.2-1.4.3-2.1.6-8.9-6.1-16.7-15.1-17.3s-16.7,6.1-17.3,15.1c-.1,2.1.1,4.1.7,5.9l-32.2,24.7c-4.4-4.2-10.1-6.9-16.6-7.4-7.2-.5-13.9,1.9-19,6.1l-30.5-30.2c1.5-2.2,2.4-4.9,2.6-7.7.6-8.9-6.1-16.7-15.1-17.3-8.9-.6-16.7,6.1-17.3,15.1-.6,8.9,6.1,16.7,15.1,17.3,2.8.2,5.5-.3,7.9-1.4l31.5,31.2c-2.1,3.5-3.4,7.4-3.7,11.7-1,14.7,10.1,27.5,24.8,28.5,14.7,1,27.5-10.1,28.5-24.8.3-5-.7-9.7-2.8-13.8l31.9-24.4c2.5,2.2,5.8,3.6,9.4,3.8,4.7.3,9.2-1.4,12.3-4.5l27.9,13.1c-.2.9-.3,1.8-.4,2.7-.9,12.5,8.6,23.4,21.1,24.3,12.5.9,23.4-8.6,24.3-21.1.5-6.9-2.2-13.3-6.8-17.8l33.4-54.7c.9.2,1.9.4,2.8.5,8.9.6,16.7-6.1,17.3-15.1.6-8.9-6.1-16.7-15.1-17.3ZM372,194.6c-4.3-.3-7.6-4.1-7.3-8.4.3-4.3,4.1-7.6,8.4-7.3,4.3.3,7.6,4.1,7.3,8.4s-4.1,7.6-8.4,7.3ZM432.6,262.5c-9-.6-15.7-8.4-15.1-17.3.6-9,8.4-15.7,17.3-15.1,9,.6,15.7,8.4,15.1,17.3-.6,9-8.4,15.7-17.3,15.1ZM499.5,205.4c-4.3-.3-7.6-4.1-7.3-8.4.3-4.3,4.1-7.6,8.4-7.3,4.3.3,7.6,4.1,7.3,8.4-.3,4.3-4.1,7.6-8.4,7.3ZM560.5,240.5c-7.6-.5-13.4-7.1-12.9-14.8.5-7.6,7.1-13.4,14.8-12.9,7.6.5,13.4,7.1,12.9,14.8-.5,7.6-7.1,13.4-14.8,12.9ZM614.2,147.8c-4.3-.3-7.6-4.1-7.3-8.4.3-4.3,4.1-7.6,8.4-7.3,4.3.3,7.6,4.1,7.3,8.4-.3,4.3-4.1,7.6-8.4,7.3Z" class="cls-4"></path>
      <path d="M666.2,347.9c-87.8-25.4-133.1-98.9-159.7-85.6-26.6,13.3,68.4,106.5,63.7,136.9-4.7,30.4-21.8,43.7-44.7,85.6-22.8,41.8-26.4,85.4-5.7,98.9,23.3,15.2,98.9-114.1,125.5-93.2,26.6,20.9,38,94.5,58.9,95.7,20.9,1.2,32.3-78.8,15.2-122.3,0,0,101-71.6,77.9-139.3-7.6-22.3-45.6,48-131.2,23.3Z" class="cls-3"></path>
      <circle r="52" cy="260.8" cx="673.1" class="cls-3"></circle>
    </g>
  </g>
</svg>