<!--?xml version="1.0" encoding="UTF-8"?-->
<svg viewBox="0 0 883.09 249.62" xmlns:xlink="http://www.w3.org/1999/xlink" xmlns="http://www.w3.org/2000/svg" data-name="Layer 2" id="Layer_2">
  <defs>
    <style>
      .cls-1 {
        fill: url(#New_Gradient_Swatch-2);
      }

      .cls-1, .cls-2, .cls-3, .cls-4 {
        fill-rule: evenodd;
      }

      .cls-2 {
        fill: url(#New_Gradient_Swatch-3);
      }

      .cls-3 {
        fill: url(#New_Gradient_Swatch-4);
      }

      .cls-5 {
        fill: url(#New_Gradient_Swatch-5);
      }

      .cls-6 {
        fill: url(#New_Gradient_Swatch-7);
      }

      .cls-7 {
        fill: url(#New_Gradient_Swatch-6);
      }

      .cls-4 {
        fill: url(#New_Gradient_Swatch);
      }
    </style>
    <linearGradient gradientUnits="userSpaceOnUse" y2="78.42" x2="872.98" y1="78.42" x1="-.26" data-name="New Gradient Swatch" id="New_Gradient_Swatch">
      <stop stop-color="#c20092" offset="0"></stop>
      <stop stop-color="#ff7100" offset="1"></stop>
    </linearGradient>
    <linearGradient xlink:href="#New_Gradient_Swatch" x2="872.98" x1="-.26" data-name="New Gradient Swatch" id="New_Gradient_Swatch-2"></linearGradient>
    <linearGradient xlink:href="#New_Gradient_Swatch" y2="78.63" x2="3974.57" y1="78.63" x1="-1011.69" data-name="New Gradient Swatch" id="New_Gradient_Swatch-3"></linearGradient>
    <linearGradient xlink:href="#New_Gradient_Swatch" y2="78.53" x2="872.98" y1="78.53" x1="-.26" data-name="New Gradient Swatch" id="New_Gradient_Swatch-4"></linearGradient>
    <linearGradient xlink:href="#New_Gradient_Swatch" y2="78.63" x2="872.98" y1="78.63" x1="-.26" data-name="New Gradient Swatch" id="New_Gradient_Swatch-5"></linearGradient>
    <linearGradient xlink:href="#New_Gradient_Swatch" y2="78.74" x2="872.98" y1="78.74" x1="-.26" data-name="New Gradient Swatch" id="New_Gradient_Swatch-6"></linearGradient>
    <linearGradient xlink:href="#New_Gradient_Swatch" y2="78.42" x2="872.98" y1="78.42" x1="-.26" data-name="New Gradient Swatch" id="New_Gradient_Swatch-7"></linearGradient>
  </defs>
  <g data-name="Layer 1" id="Layer_1-2">
    <g>
      <g>
        <polygon points="453.32 0 427.98 0 427.98 21.98 427.98 134.86 427.98 156.84 453.32 156.84 453.32 134.86 453.32 21.98 453.32 0" class="cls-4"></polygon>
        <polygon points="202.26 0 176.92 0 176.92 21.98 176.92 134.86 176.92 156.84 202.26 156.84 202.26 134.86 202.26 21.98 202.26 0" class="cls-1"></polygon>
        <path d="m138.06,48.33c-4.42-9.46-10.42-17.75-18-24.86-7.58-7.11-16.46-12.73-26.64-16.86C83.24,2.49,72.31.43,60.62.43H0v20.06h57.78c8.68,0,16.73,1.53,24.15,4.6,7.42,3.06,13.85,7.23,19.3,12.51,5.45,5.27,9.67,11.44,12.67,18.49,3,7.05,4.5,14.57,4.5,22.56s-1.5,15.5-4.5,22.55c-3,7.05-7.18,13.22-12.55,18.49-5.37,5.27-11.76,9.44-19.18,12.51-7.42,3.06-15.55,4.6-24.39,4.6H25.34V41.65H0v115.19h60.62c12,0,23.13-2.06,33.39-6.19,10.26-4.12,19.14-9.71,26.64-16.75,7.5-7.04,13.38-15.29,17.64-24.75,4.26-9.46,6.39-19.6,6.39-30.41s-2.21-20.95-6.63-30.41Z" class="cls-2"></path>
        <polygon points="812.29 .21 812.29 134.44 883.09 134.44 883.09 156.84 786.95 156.84 786.95 .21 812.29 .21" class="cls-3"></polygon>
        <polygon points="686.54 52.71 629.13 156.84 601.46 156.84 686.54 .43 771.61 156.84 755.24 156.84 743.94 156.84 686.54 156.84 686.54 132.58 730.57 132.58 686.54 52.71" class="cls-5"></polygon>
        <path d="m337.49,65.15h58.26v22.34h-58.26v-22.34Zm58.26,43.5c-1.17,2.65-2.5,5.23-4.01,7.76-4.85,8.18-10.94,15.26-18.26,21.23-7.32,5.97-15.68,10.67-25.07,14.08-9.4,3.41-19.41,5.12-30.04,5.12-11.55,0-22.45-2.06-32.7-6.19-10.25-4.12-19.14-9.71-26.69-16.75-7.55-7.04-13.52-15.29-17.91-24.75-4.39-9.46-6.59-19.6-6.59-30.41s2.19-20.95,6.59-30.41c4.39-9.46,10.36-17.71,17.91-24.75,7.55-7.04,16.45-12.63,26.69-16.75,10.25-4.12,21.15-6.19,32.7-6.19,8.78,0,17.14,1.17,25.08,3.52,7.94,2.35,15.21,5.65,21.84,9.92,6.62,4.27,12.52,9.35,17.68,15.26,5.16,5.9,9.55,12.34,12.79,19.31h-28.62c-5.08-7.97-11.9-14.37-20.45-19.2-8.55-4.84-17.99-7.26-28.31-7.26-8.01,0-15.56,1.49-22.65,4.48-7.09,2.99-13.25,7.04-18.49,12.16-5.24,5.12-9.4,11.1-12.48,17.92-3.08,6.83-4.62,14.15-4.62,21.98s1.54,15.15,4.62,21.98c3.08,6.83,7.24,12.8,12.48,17.93,5.24,5.12,11.4,9.18,18.49,12.16,7.09,2.99,14.64,4.48,22.65,4.48,6.94,0,13.56-1.14,19.88-3.41,6.32-2.28,11.98-5.44,16.99-9.5,4.81-3.89,8.9-8.47,12.29-13.74h28.23Z" class="cls-7"></path>
        <path d="m479.78,0h141.86v21.98h-58.38v134.86h-25.1V21.98h-58.38V0Z" class="cls-6"></path>
      </g>
      <g>
        <path d="m0,247.46v-6.92c3.97,1.82,6.87,2.92,8.69,3.29,1.83.38,3.52.57,5.08.57,2.83,0,5.07-.77,6.7-2.31,1.64-1.54,2.46-3.39,2.46-5.54,0-1.62-.43-3.12-1.28-4.49-.88-1.35-3.05-3-6.5-4.95l-3.41-1.96c-4.54-2.57-7.59-4.92-9.15-7.05-1.56-2.13-2.34-4.49-2.34-7.08,0-2.33.62-4.51,1.85-6.55,1.24-2.04,2.9-3.63,4.98-4.79,2.08-1.15,4.71-1.73,7.87-1.73,3.81,0,7.83.63,12.06,1.9v6.39c-3.68-1.44-6.21-2.31-7.58-2.61-1.37-.3-2.74-.45-4.1-.45-2.86,0-4.97.74-6.34,2.23-1.37,1.49-2.06,3-2.06,4.56,0,1.06.33,2.14.97,3.24.65,1.1,1.52,2.04,2.62,2.83,1.1.79,2.6,1.72,4.52,2.81l3.54,1.99c4.59,2.59,7.65,4.97,9.18,7.12,1.54,2.17,2.31,4.67,2.31,7.48,0,3.84-1.46,7.16-4.39,9.98-2.93,2.82-7.24,4.22-12.94,4.22-1.76,0-3.46-.12-5.11-.35-1.65-.23-4.2-.84-7.65-1.81Z"></path>
        <path d="m57.92,248.39v-49.22h27.57v5.22h-20.58v15.8h17.26v5.16h-17.26v17.83h22.01v5.22h-28.99Z"></path>
        <path d="m116.43,248.39v-49.22h14.9c5.52,0,9.33,1.24,11.44,3.71,2.11,2.47,3.16,5.3,3.16,8.5,0,1.86-.37,3.7-1.11,5.52-.74,1.82-1.8,3.44-3.17,4.85-1.37,1.42-3.25,2.62-5.62,3.59l16.44,23.05h-8.58l-14.02-20.82h-6.52v20.82h-6.92Zm6.92-26.04h2.26c5.17,0,8.65-1.08,10.46-3.23,1.81-2.15,2.71-4.51,2.71-7.08,0-1.53-.34-2.87-1.01-4.01-.68-1.14-1.73-2.03-3.16-2.68-1.43-.64-3.72-.97-6.86-.97h-4.39v17.96Z"></path>
        <path d="m186.94,248.39l-18.58-49.22h7l15.21,40.31,14.73-40.31h6.09l-17.86,49.22h-6.59Z"></path>
        <path d="m237.43,248.39v-49.22h6.98v49.22h-6.98Z"></path>
        <path d="m313.2,245.86c-2.02,1.04-3.82,1.81-5.4,2.31s-3.23.87-4.94,1.1c-1.71.23-3.56.35-5.55.35-8.29,0-14.36-2.45-18.21-7.35-3.85-4.9-5.77-11.05-5.77-18.46s1.99-13.76,5.98-18.61c3.99-4.84,10.11-7.27,18.35-7.27,4.39,0,9.54.72,15.46,2.16v6.55c-4.97-1.71-8.39-2.72-10.26-3.03s-3.65-.47-5.34-.47c-5.9,0-10.17,2-12.82,6-2.65,4-3.97,8.91-3.97,14.72s1.52,10.95,4.57,14.68c3.05,3.74,7.36,5.6,12.95,5.6,1.55,0,3.1-.14,4.64-.41s3.07-.69,4.61-1.23,3.42-1.43,5.69-2.64v5.99Z"></path>
        <path d="m340.95,248.39v-49.22h27.57v5.22h-20.58v15.8h17.26v5.16h-17.26v17.83h22.01v5.22h-28.99Z"></path>
        <path d="m395.2,247.46v-6.92c3.97,1.82,6.87,2.92,8.69,3.29,1.83.38,3.52.57,5.08.57,2.83,0,5.07-.77,6.71-2.31,1.64-1.54,2.46-3.39,2.46-5.54,0-1.62-.43-3.12-1.28-4.49-.88-1.35-3.04-3-6.5-4.95l-3.41-1.96c-4.54-2.57-7.59-4.92-9.15-7.05-1.56-2.13-2.34-4.49-2.34-7.08,0-2.33.62-4.51,1.85-6.55,1.24-2.04,2.9-3.63,4.98-4.79,2.08-1.15,4.71-1.73,7.87-1.73,3.81,0,7.83.63,12.06,1.9v6.39c-3.68-1.44-6.21-2.31-7.58-2.61s-2.74-.45-4.1-.45c-2.85,0-4.97.74-6.34,2.23-1.37,1.49-2.06,3-2.06,4.56,0,1.06.33,2.14.97,3.24.65,1.1,1.52,2.04,2.62,2.83,1.1.79,2.6,1.72,4.52,2.81l3.54,1.99c4.59,2.59,7.65,4.97,9.18,7.12,1.54,2.17,2.31,4.67,2.31,7.48,0,3.84-1.46,7.16-4.39,9.98-2.93,2.82-7.24,4.22-12.94,4.22-1.76,0-3.46-.12-5.11-.35-1.65-.23-4.2-.84-7.65-1.81Z"></path>
        <path d="m498.96,248.39l19.55-49.22h6.89l19.25,49.22h-7.55l-5.37-13.64h-20.88l-5.4,13.64h-6.48Zm13.96-18.86h16.75l-8.35-21.19-8.4,21.19Z"></path>
        <path d="m582.85,248.39l-12.73-49.22h6.69l10.12,38.88,9.26-38.88h6.75l8.76,38.35,10.87-38.35h5.67l-13.82,49.22h-6.95l-8.67-37.95-9.08,37.95h-6.88Z"></path>
        <path d="m648.06,248.39l19.55-49.22h6.89l19.25,49.22h-7.55l-5.37-13.64h-20.88l-5.4,13.64h-6.48Zm13.96-18.86h16.75l-8.35-21.19-8.4,21.19Z"></path>
        <path d="m722.06,248.39v-49.22h14.9c5.52,0,9.33,1.24,11.44,3.71s3.16,5.3,3.16,8.5c0,1.86-.37,3.7-1.11,5.52-.74,1.82-1.8,3.44-3.18,4.85-1.37,1.42-3.25,2.62-5.62,3.59l16.44,23.05h-8.58l-14.01-20.82h-6.52v20.82h-6.92Zm6.92-26.04h2.26c5.17,0,8.65-1.08,10.46-3.23s2.71-4.51,2.71-7.08c0-1.53-.34-2.87-1.01-4.01-.68-1.14-1.73-2.03-3.16-2.68-1.43-.64-3.72-.97-6.87-.97h-4.39v17.96Z"></path>
        <path d="m783.56,248.39v-49.22h16.35c6.31,0,11.1.92,14.35,2.74,3.26,1.83,5.81,4.5,7.66,8.02,1.85,3.51,2.78,7.74,2.78,12.69,0,4.68-.85,8.97-2.54,12.87-1.69,3.9-4.27,7.03-7.72,9.38-3.46,2.35-8.26,3.53-14.42,3.53h-16.45Zm6.98-5.22h8.92c4.64,0,8.12-.74,10.43-2.21,2.31-1.47,4.12-3.81,5.42-7,1.3-3.19,1.96-6.75,1.96-10.68,0-3.46-.56-6.61-1.69-9.46-1.13-2.85-2.95-5.13-5.47-6.85-2.52-1.72-7.13-2.58-13.83-2.58h-5.74v38.78Z"></path>
        <path d="m853,247.46v-6.92c3.97,1.82,6.87,2.92,8.7,3.29,1.83.38,3.52.57,5.08.57,2.83,0,5.07-.77,6.71-2.31,1.64-1.54,2.46-3.39,2.46-5.54,0-1.62-.43-3.12-1.28-4.49-.88-1.35-3.04-3-6.5-4.95l-3.41-1.96c-4.54-2.57-7.59-4.92-9.15-7.05s-2.34-4.49-2.34-7.08c0-2.33.62-4.51,1.85-6.55,1.24-2.04,2.9-3.63,4.98-4.79,2.08-1.15,4.71-1.73,7.87-1.73,3.81,0,7.83.63,12.06,1.9v6.39c-3.68-1.44-6.21-2.31-7.58-2.61-1.37-.3-2.74-.45-4.1-.45-2.86,0-4.97.74-6.34,2.23-1.37,1.49-2.06,3-2.06,4.56,0,1.06.33,2.14.97,3.24.65,1.1,1.52,2.04,2.62,2.83,1.1.79,2.6,1.72,4.52,2.81l3.54,1.99c4.59,2.59,7.65,4.97,9.18,7.12,1.54,2.17,2.3,4.67,2.3,7.48,0,3.84-1.46,7.16-4.39,9.98-2.93,2.82-7.24,4.22-12.94,4.22-1.76,0-3.46-.12-5.11-.35s-4.2-.84-7.65-1.81Z"></path>
      </g>
    </g>
  </g>
</svg>