<svg viewBox="0 0 600 600" xmlns:xlink="http://www.w3.org/1999/xlink" xmlns="http://www.w3.org/2000/svg" data-name="Layer 1" id="Layer_1">
  <defs>
    <style>
      .cls-1 {
        fill: url(#linear-gradient);
      }

      .cls-1, .cls-2 {
        stroke-width: 0px;
      }

      .cls-2 {
        fill: #fff;
        fill-rule: evenodd;
      }
    </style>
    <linearGradient gradientUnits="userSpaceOnUse" y2="78.25" x2="521.75" y1="537.92" x1="62.08" id="linear-gradient">
      <stop stop-color="#c20092" offset="0"></stop>
      <stop stop-color="#ff7100" offset="1"></stop>
    </linearGradient>
  </defs>
  <rect ry="300" rx="300" height="600" width="600" y="0" x="0" class="cls-1"></rect>
  <path d="M458.75,237.74c-9.08-19.44-21.41-36.47-36.98-51.08-15.57-14.61-33.82-26.16-54.73-34.64-20.92-8.49-43.39-12.72-67.39-12.72h-124.55v41.22h118.71c17.83,0,34.37,3.14,49.62,9.45,15.25,6.29,28.46,14.85,39.65,25.7,11.2,10.83,19.87,23.5,26.03,37.99,6.16,14.48,9.25,29.94,9.25,46.35s-3.08,31.85-9.25,46.33c-6.16,14.48-14.75,27.16-25.79,37.99-11.03,10.83-24.16,19.4-39.41,25.7-15.25,6.29-31.95,9.45-50.11,9.45h-66.65v-195.45h-52.06v236.67h124.55c24.66,0,47.52-4.23,68.6-12.72,21.08-8.46,39.33-19.95,54.73-34.41,15.41-14.46,27.49-31.41,36.24-50.85s13.13-40.27,13.13-62.48c.02-22.23-4.52-43.06-13.6-62.5Z" class="cls-2"></path>
</svg>