<svg viewBox="0 0 128 128" version="1.1" xmlns:xlink="http://www.w3.org/1999/xlink" xmlns="http://www.w3.org/2000/svg" data-name="Layer 1" id="Layer_1">
  <defs>
    <style>
      .cls-1 {
        clip-path: url(#clippath);
      }

      .cls-2, .cls-3 {
        fill: none;
      }

      .cls-2, .cls-4, .cls-5, .cls-6 {
        stroke-width: 0px;
      }

      .cls-3 {
        stroke: url(#New_Gradient_Swatch_2-2);
        stroke-width: 5px;
      }

      .cls-3, .cls-7 {
        stroke-miterlimit: 10;
      }

      .cls-4 {
        fill: #c20092;
        fill-rule: evenodd;
      }

      .cls-7 {
        fill: url(#New_Gradient_Swatch_2);
        stroke: #fff;
        stroke-width: 1px;
      }

      .cls-5 {
        fill: #3b9dff;
      }

      .cls-6 {
        fill: #fff;
      }
    </style>
    <linearGradient gradientUnits="userSpaceOnUse" y2="4" x2="56.4" y1="124" x1="71.6" data-name="New Gradient Swatch 2" id="New_Gradient_Swatch_2">
      <stop stop-color="#c20092" offset="0"></stop>
      <stop stop-color="#ff7100" offset="1"></stop>
    </linearGradient>
    <clipPath id="clippath">
      <rect ry="18.7" rx="18.7" height="111.8" width="111.8" y="8.1" x="8.1" class="cls-2"></rect>
    </clipPath>
    <linearGradient xlink:href="#New_Gradient_Swatch_2" y2="1.5" x2="56.1" y1="126.5" x1="71.9" data-name="New Gradient Swatch 2" id="New_Gradient_Swatch_2-2"></linearGradient>
  </defs>
  <rect ry="18.7" rx="18.7" height="112.2" width="112.2" y="7.9" x="7.9" class="cls-7"></rect>
  <g class="cls-1">
    <rect height="65.4" width="85.5" y="31.3" x="21.7" class="cls-6"></rect>
    <path d="M22.5,30.8h85v66.3H21.4V30.8h1ZM51.5,79.5h23.7v5.4h-23.7v-5.4ZM55.3,81.2h16.1v1.9h-16.1v-1.9ZM41.2,67h44.4v9.1h-44.4v-9.1ZM45,69.9h4.2v3.3h-4.2v-3.3ZM77.5,69.9h4.2v3.3h-4.2v-3.3ZM71,69.9h4.2v3.3h-4.2v-3.3ZM51.5,69.9h4.2v3.3h-4.2v-3.3ZM64.5,69.9h4.2v3.3h-4.2v-3.3ZM58,69.9h4.2v3.3h-4.2v-3.3ZM41.2,53.9h44.4v9.1h-44.4v-9.1ZM58.2,56.9h4.2v3.3h-4.2v-3.3ZM70.5,56.9h4.2v3.3h-4.2v-3.3ZM64.3,56.9h4.2v3.3h-4.2v-3.3ZM52,56.9h4.2v3.3h-4.2v-3.3ZM44.7,35.4h-7.6v6.7h7.6v-6.7ZM34.4,35.4h-7.7v6.7h7.7v-6.7ZM58.5,42.5h43v-7.9h-43v7.9ZM105.3,45.3H23.6v49.7h81.8v-49.7Z" class="cls-4"></path>
    <g>
      <circle r="11.1" cy="97.1" cx="27.3" class="cls-6"></circle>
      <g>
        <circle transform="translate(-22 9.1) rotate(-13.5)" r="11.3" cy="97.2" cx="27.3" class="cls-5"></circle>
        <circle r="3.5" cy="93.1" cx="27.2" class="cls-6"></circle>
        <path d="M27.1,97.8h0c3.3,0,6,2.6,6.4,5.9h-12.5c.2-3.3,2.9-5.8,6.1-5.9Z" class="cls-6"></path>
      </g>
    </g>
    <g>
      <circle r="7" cy="68.1" cx="21.3" class="cls-6"></circle>
      <g>
        <circle transform="translate(-15.3 6.9) rotate(-13.5)" r="7" cy="68.2" cx="21.2" class="cls-5"></circle>
        <circle r="2.2" cy="65.6" cx="21.2" class="cls-6"></circle>
        <path d="M21.2,68.5h0c2,0,3.8,1.6,4,3.7h-7.8c.1-2,1.8-3.6,3.8-3.7Z" class="cls-6"></path>
      </g>
    </g>
    <g>
      <circle r="9.4" cy="97.3" cx="86.2" class="cls-6"></circle>
      <g>
        <circle transform="translate(-20.4 22.8) rotate(-13.5)" r="9.5" cy="97.4" cx="86.1" class="cls-5"></circle>
        <circle r="3" cy="93.9" cx="86.1" class="cls-6"></circle>
        <path d="M86,97.9h0c2.8,0,5.1,2.2,5.4,5h-10.6c.2-2.8,2.4-4.9,5.2-5Z" class="cls-6"></path>
      </g>
    </g>
    <g>
      <circle r="13.7" cy="64.3" cx="105.9" class="cls-6"></circle>
      <g>
        <circle transform="translate(-12.1 26.5) rotate(-13.5)" r="13.8" cy="64.5" cx="105.8" class="cls-5"></circle>
        <circle r="4.3" cy="59.4" cx="105.8" class="cls-6"></circle>
        <path d="M105.7,65.2h0c4,0,7.4,3.2,7.8,7.2h-15.3c.2-4,3.5-7.1,7.5-7.2Z" class="cls-6"></path>
      </g>
    </g>
    <g>
      <circle r="6.3" cy="87.1" cx="102.3" class="cls-6"></circle>
      <g>
        <circle transform="translate(-17.5 26.3) rotate(-13.5)" r="6.4" cy="87.2" cx="102.3" class="cls-5"></circle>
        <circle r="2" cy="84.8" cx="102.3" class="cls-6"></circle>
        <path d="M102.2,87.5h0c1.9,0,3.4,1.5,3.6,3.3h-7.1c.1-1.9,1.6-3.3,3.5-3.3Z" class="cls-6"></path>
      </g>
    </g>
    <g>
      <circle r="6.3" cy="96.2" cx="48.1" class="cls-6"></circle>
      <g>
        <circle transform="translate(-21.2 13.9) rotate(-13.5)" r="6.4" cy="96.3" cx="48.1" class="cls-5"></circle>
        <circle r="2" cy="93.9" cx="48.1" class="cls-6"></circle>
        <path d="M48,96.6h0c1.9,0,3.4,1.5,3.6,3.3h-7.1c.1-1.9,1.6-3.3,3.5-3.3Z" class="cls-6"></path>
      </g>
    </g>
  </g>
  <rect ry="18.7" rx="18.7" height="112.2" width="112.2" y="7.9" x="7.9" class="cls-3"></rect>
</svg>