<svg viewBox="0 0 128 128" version="1.1" xmlns:xlink="http://www.w3.org/1999/xlink" xmlns="http://www.w3.org/2000/svg" data-name="Layer 1" id="Layer_1">
  <defs>
    <style>
      .cls-1 {
        clip-path: url(#clippath);
      }

      .cls-2, .cls-3 {
        fill: none;
      }

      .cls-2, .cls-4, .cls-5, .cls-6, .cls-7 {
        stroke-width: 0px;
      }

      .cls-3 {
        stroke: url(#New_Gradient_Swatch_2-2);
        stroke-width: 5px;
      }

      .cls-3, .cls-8 {
        stroke-miterlimit: 10;
      }

      .cls-4 {
        fill: #39b54a;
      }

      .cls-4, .cls-5 {
        fill-rule: evenodd;
      }

      .cls-8 {
        fill: url(#New_Gradient_Swatch_2);
        stroke: #fff;
        stroke-width: 1px;
      }

      .cls-5, .cls-6 {
        fill: #fff;
      }

      .cls-7 {
        fill: #231f20;
      }
    </style>
    <linearGradient gradientUnits="userSpaceOnUse" y2="4" x2="56.4" y1="124" x1="71.6" data-name="New Gradient Swatch 2" id="New_Gradient_Swatch_2">
      <stop stop-color="#c20092" offset="0"></stop>
      <stop stop-color="#ff7100" offset="1"></stop>
    </linearGradient>
    <clipPath id="clippath">
      <rect ry="18.7" rx="18.7" height="111.8" width="111.8" y="8.1" x="8.1" class="cls-2"></rect>
    </clipPath>
    <linearGradient xlink:href="#New_Gradient_Swatch_2" y2="1.5" x2="56.1" y1="126.5" x1="71.9" data-name="New Gradient Swatch 2" id="New_Gradient_Swatch_2-2"></linearGradient>
  </defs>
  <rect ry="18.7" rx="18.7" height="112.2" width="112.2" y="7.9" x="7.9" class="cls-8"></rect>
  <g class="cls-1">
    <g>
      <rect height="58.3" width="41.9" y="34.4" x="43.1" class="cls-6"></rect>
      <rect height="11.2" width="12.2" y="93.6" x="58.1" class="cls-6"></rect>
      <rect height="11.2" width="40.3" y="22.9" x="44" class="cls-6"></rect>
      <path d="M84.5,21.9h-41.1c-1.9,0-3.3,1.5-3.3,3.3v77.5c0,1.9,1.5,3.4,3.3,3.4h41.1c1.9,0,3.4-1.6,3.4-3.4V25.2c0-1.8-1.5-3.3-3.4-3.3h0ZM56.8,28.9h0c.1,0,.4.1.4.4s-.2.4-.4.4c-.2,0-.4-.1-.4-.4s.1-.4.4-.4h0ZM53.9,28.4h0c.4,0,.8.4.8,1s-.4.8-.8.8-.9-.4-.9-.8c0-.6.4-1,.9-1h0ZM50.1,28h0c.7,0,1.2.5,1.2,1.2s-.5,1-1.2,1-1.1-.5-1.1-1,.4-1.2,1.1-1.2h0ZM46.1,27.9h0c.7,0,1.2.5,1.2,1.3s-.5,1.2-1.2,1.2-1.3-.5-1.3-1.2.5-1.3,1.3-1.3h0ZM64,93.9h0c2.8,0,5.1,2.3,5.1,5s-2.3,5.1-5.1,5.1-5.1-2.3-5.1-5.1,2.3-5,5.1-5h0ZM59.5,28.9h8.5c.4,0,.6.3.6.5,0,.4-.2.7-.6.7h-8.5c-.4,0-.7-.2-.7-.7s.2-.5.7-.5h0ZM84,92.7h-40v-57.5h40v57.5Z" class="cls-7"></path>
    </g>
    <path d="M112.3,90.8c0,10.2-8.4,18.6-18.7,18.6s-18.6-8.4-18.6-18.6,8.3-18.7,18.6-18.7,18.7,8.4,18.7,18.7h0Z" class="cls-4"></path>
    <path d="M103.5,86.3c-.9-.9-2.4-.9-3.3,0l-8.2,8.2-4.9-5c-.9-.9-2.4-.9-3.3,0-.9.9-.9,2.4,0,3.3l6.6,6.6c.5.4,1.1.6,1.7.6s1.2-.2,1.6-.6l9.9-9.9c.9-.9.9-2.4,0-3.3h0Z" class="cls-5"></path>
  </g>
  <rect ry="18.7" rx="18.7" height="112.2" width="112.2" y="7.9" x="7.9" class="cls-3"></rect>
</svg>